<svg xmlns="http://www.w3.org/2000/svg" width="1024" height="676" viewBox="0 0 1024 676">
<g>
<path d="M 143.13 479.62 C139.77,481.16 76.35,480.75 74.78,479.18 C73.99,478.39 73.00,388.35 73.76,386.25 C74.09,385.35 77.04,385.04 84.36,385.15 C89.94,385.23 93.26,385.49 91.75,385.72 C90.24,385.95 89.00,386.55 89.00,387.07 C89.00,387.58 87.70,388.00 86.12,388.00 C82.09,388.00 80.89,391.16 80.73,402.25 C80.61,410.87 82.11,418.27 84.34,420.08 C86.34,421.69 86.34,421.72 83.71,424.00 C80.91,426.44 80.97,428.00 83.88,428.00 C84.86,428.00 86.60,429.01 87.75,430.25 C89.62,432.25 89.70,432.72 88.43,434.44 C86.94,436.46 86.43,443.00 87.76,443.00 C89.42,443.00 91.12,438.60 90.86,435.00 C90.71,432.91 91.17,430.50 91.88,429.65 C93.28,427.95 92.59,424.45 90.43,422.28 C89.71,421.57 89.29,420.08 89.50,418.98 C89.71,417.89 89.23,414.45 88.42,411.35 C87.07,406.18 87.09,405.56 88.67,403.81 C91.14,401.08 91.33,398.24 89.08,397.52 C86.21,396.61 85.75,394.21 88.29,393.41 C89.49,393.03 94.65,392.79 99.75,392.88 C106.34,392.99 109.87,392.60 111.95,391.53 C116.14,389.36 119.65,390.95 116.86,393.74 C116.00,394.60 116.31,395.01 118.11,395.38 C119.42,395.66 121.85,396.18 123.50,396.54 C125.15,396.91 128.88,397.43 131.78,397.70 C137.85,398.26 139.99,397.07 140.02,393.13 C140.02,391.68 140.45,389.84 140.96,389.03 C141.55,388.10 141.50,387.10 140.82,386.28 C140.04,385.34 140.12,385.00 141.13,385.00 C142.19,385.00 142.47,386.68 142.35,392.25 C142.26,396.24 142.15,400.03 142.10,400.67 C141.90,403.05 134.63,404.13 114.31,404.81 L 93.50 405.50 L 93.50 422.50 L 137.50 423.50 L 137.79 431.64 C137.81,432.12 137.82,432.58 137.84,433.02 C137.99,436.79 138.08,439.14 136.99,440.61 C135.18,443.02 130.15,443.01 116.84,443.00 C115.90,443.00 114.91,443.00 113.89,443.00 L 92.92 443.00 L 93.50 460.50 L 103.00 461.31 C108.22,461.76 119.76,461.90 128.63,461.64 L 144.77 461.15 L 145.41 465.15 C146.33,470.91 145.10,478.72 143.13,479.62 ZM 255.02 521.00 C253.88,522.80 247.95,522.86 144.00,522.05 L 72.50 521.50 L 71.94 516.00 C71.63,512.97 71.65,509.15 71.98,507.50 L 72.58 504.50 L 144.54 504.56 C203.11,504.62 230.64,505.05 247.50,506.19 C248.05,506.23 250.14,505.94 252.14,505.54 L 255.78 504.82 L 255.87 512.16 C255.93,516.20 255.54,520.17 255.02,521.00 ZM 275.35 480.08 C272.68,480.52 269.15,480.90 267.50,480.93 C267.20,480.93 266.92,480.94 266.65,480.95 C265.62,480.98 264.79,481.01 264.12,480.70 C261.32,479.36 261.46,471.84 261.21,432.52 C260.95,390.83 261.09,385.90 262.51,385.36 C264.81,384.48 264.91,384.89 264.12,391.65 C263.24,399.04 264.56,420.45 266.56,431.45 C267.52,436.71 268.92,440.72 270.72,443.32 L 273.44 447.24 L 274.97 444.98 C275.81,443.74 277.81,441.41 279.41,439.81 C281.78,437.44 282.30,436.08 282.25,432.45 L 282.18 428.00 L 296.64 428.00 C311.63,428.00 314.58,427.36 318.16,423.35 C322.41,418.59 322.32,407.31 318.02,405.01 C316.96,404.44 308.66,404.00 299.07,404.00 C288.66,404.00 282.00,403.62 282.00,403.03 C282.00,399.69 299.45,396.24 308.16,397.85 C321.23,400.27 325.46,404.44 324.67,414.11 C324.42,417.20 323.32,421.74 322.24,424.20 C320.59,427.92 320.46,429.06 321.48,430.96 L 322.70 433.25 L 323.29 430.99 C323.70,429.45 324.37,428.94 325.44,429.37 C326.30,429.72 327.58,430.24 328.30,430.53 C329.05,430.83 331.33,428.93 333.68,426.04 C338.38,420.26 339.68,414.78 338.00,407.90 C337.41,405.48 336.80,402.94 336.65,402.25 C336.28,400.52 329.44,394.21 324.00,390.57 C320.10,387.97 319.79,387.52 321.68,387.22 C326.40,386.48 335.44,393.27 339.33,400.50 C342.27,405.96 342.44,420.73 339.62,426.00 C335.76,433.22 331.06,437.85 324.22,441.14 C320.53,442.93 317.33,444.50 317.13,444.65 C316.52,445.08 326.87,457.86 335.47,467.31 C339.89,472.16 343.64,476.52 343.81,477.00 C343.99,477.49 342.68,478.63 340.91,479.55 C338.53,480.78 335.88,481.11 330.67,480.81 L 323.64 480.41 L 316.24 472.46 C312.16,468.08 306.15,461.02 302.88,456.77 C299.61,452.52 295.98,448.52 294.81,447.90 C292.76,446.80 283.41,447.26 282.15,448.52 C281.83,448.84 281.66,455.26 281.77,462.80 C281.88,470.33 281.58,477.13 281.09,477.89 C280.60,478.66 278.02,479.64 275.35,480.08 ZM 221.70 478.03 C215.64,480.85 203.67,482.60 198.50,481.43 C197.40,481.18 194.03,480.48 191.01,479.87 C178.11,477.24 169.01,470.51 164.06,459.94 C160.17,451.63 159.29,444.35 158.54,414.25 C157.93,389.99 158.23,386.88 161.40,384.77 C164.34,382.80 165.09,385.02 165.58,397.25 C165.80,402.69 166.62,408.56 167.45,410.54 C168.27,412.49 168.88,415.57 168.81,417.39 C168.68,420.98 169.66,423.33 170.97,422.52 C172.26,421.72 173.90,410.63 174.64,397.75 C175.23,387.23 175.50,386.00 177.15,386.00 C178.91,386.00 179.00,387.45 179.00,414.63 C179.00,446.11 179.37,448.73 184.63,454.88 C189.38,460.44 193.36,462.00 202.65,461.98 C213.08,461.96 217.33,459.67 221.29,451.93 C223.83,446.95 224.21,444.89 225.03,431.45 C225.53,423.23 226.01,412.00 226.08,406.50 C226.21,397.52 226.32,396.96 227.17,401.00 C228.38,406.77 227.55,445.38 226.11,450.05 C225.51,452.01 224.20,454.48 223.21,455.55 C220.51,458.45 219.94,460.70 221.55,462.04 C222.33,462.69 222.76,463.57 222.50,464.00 C222.24,464.43 222.64,465.29 223.40,465.92 C225.11,467.34 232.03,464.87 236.38,461.29 C239.96,458.33 240.63,458.88 238.49,463.01 C235.76,468.29 228.30,474.97 221.70,478.03 ZM 531.11 480.99 C521.04,482.87 515.21,482.17 503.47,477.67 C494.75,474.32 491.94,472.47 484.79,465.36 C478.01,458.63 475.22,453.15 473.41,443.00 C471.82,434.10 471.59,421.37 473.00,420.50 C473.55,420.16 474.01,420.25 474.03,420.69 C474.18,424.16 478.08,440.10 479.37,442.50 C480.26,444.15 480.99,446.52 480.99,447.76 C481.00,450.67 485.80,455.69 489.01,456.15 C489.09,456.16 489.16,456.17 489.24,456.18 C489.83,456.27 490.29,456.33 490.62,456.16 C491.72,455.60 491.51,452.45 490.58,438.89 L 490.47 437.32 C489.82,427.85 489.96,425.60 491.38,422.61 C493.09,419.02 495.90,416.21 494.73,419.27 C489.42,433.09 493.51,448.97 504.26,456.38 C510.82,460.90 514.60,462.00 523.55,462.00 C532.03,462.00 539.55,458.77 543.70,453.33 C545.79,450.59 546.83,449.99 548.69,450.46 C552.67,451.46 562.00,457.96 562.00,459.74 C562.00,460.66 559.18,464.17 555.73,467.53 C548.73,474.37 539.45,479.44 531.11,480.99 ZM 502.77 533.75 L 502.50 550.50 L 498.81 550.81 C495.77,551.06 494.82,550.66 493.44,548.55 C492.24,546.71 492.00,545.23 492.59,543.25 C493.04,541.74 493.28,533.14 493.13,524.14 C492.94,513.12 493.24,506.83 494.05,504.89 C495.17,502.18 495.60,502.00 501.00,502.00 C504.41,502.00 507.16,502.51 507.75,503.25 C508.30,503.94 511.31,510.35 514.45,517.50 C517.59,524.65 520.52,530.88 520.97,531.34 C521.42,531.81 522.35,530.46 523.04,528.34 C525.07,522.15 530.88,509.81 533.68,505.75 C535.90,502.53 536.81,502.00 540.05,502.00 C540.42,502.00 540.77,502.00 541.10,501.99 C542.89,501.98 544.13,501.96 545.00,502.53 C547.02,503.84 547.01,508.26 547.00,522.94 C547.00,524.11 547.00,525.35 547.00,526.66 L 547.00 550.11 L 542.25 549.80 L 537.50 549.50 L 537.50 535.75 C537.50,528.19 537.11,522.13 536.63,522.29 C536.15,522.45 533.62,527.35 531.01,533.18 C522.07,553.13 520.62,553.53 513.31,538.09 C510.47,532.08 507.33,524.88 506.34,522.09 C505.34,519.29 504.20,517.00 503.79,517.00 C503.38,517.00 502.92,524.54 502.77,533.75 ZM 453.78 549.44 C451.59,550.98 448.69,551.32 446.25,550.34 C445.30,549.96 445.00,544.43 445.00,527.50 C445.00,515.21 445.27,504.45 445.61,503.58 C446.12,502.24 448.48,502.00 461.46,502.00 C475.63,502.00 476.94,502.16 480.10,504.26 C488.15,509.62 488.84,518.96 481.76,526.64 C479.55,529.04 477.13,531.00 476.37,531.00 C474.11,531.00 474.72,532.25 481.03,540.54 C486.53,547.77 486.91,548.59 485.34,549.74 C484.39,550.43 482.19,551.00 480.45,551.00 C477.19,551.00 473.86,547.97 465.19,537.14 C462.67,533.97 461.19,533.00 458.94,533.00 L 456.00 533.00 L 456.00 540.44 C456.00,547.00 455.74,548.07 453.78,549.44 ZM 560.80 550.36 C558.27,551.04 555.46,551.02 552.70,550.30 C551.04,549.87 551.09,549.53 553.34,545.67 C554.67,543.38 557.44,537.45 559.48,532.50 C561.52,527.55 565.67,518.64 568.70,512.70 L 574.22 501.90 L 578.86 502.20 L 583.50 502.50 L 588.50 512.50 C594.24,523.97 602.97,543.54 603.67,546.51 C604.06,548.18 603.34,548.76 599.38,549.93 C596.68,550.72 594.46,550.94 594.26,550.42 C594.07,549.91 592.92,547.47 591.71,545.00 L 589.50 540.50 L 578.78 540.22 L 568.07 539.93 L 565.58 544.84 C564.02,547.92 562.24,549.97 560.80,550.36 ZM 394.79 311.04 C389.18,314.00 383.00,313.66 379.69,310.20 C378.21,308.65 377.00,306.45 377.00,305.31 C377.00,299.84 385.65,290.92 417.01,264.00 C424.38,257.67 434.02,249.26 438.43,245.31 C442.84,241.36 446.69,238.36 446.98,238.64 C447.26,238.93 446.72,239.73 445.76,240.43 C444.81,241.13 444.36,242.06 444.77,242.51 C445.17,242.96 445.00,243.04 444.40,242.69 C443.79,242.35 442.76,243.23 442.11,244.66 C441.46,246.09 440.64,246.98 440.30,246.63 C439.96,246.29 438.58,247.62 437.25,249.58 C435.91,251.55 434.57,252.90 434.26,252.59 C433.95,252.28 432.37,253.82 430.76,256.01 C429.15,258.21 424.89,262.81 421.31,266.25 C416.02,271.32 410.00,279.94 410.00,282.45 C410.00,283.35 415.47,280.59 416.30,279.27 C417.27,277.73 419.00,277.59 419.00,279.06 C419.00,279.64 418.44,279.78 417.75,279.37 C416.88,278.84 416.91,279.12 417.85,280.28 C419.07,281.79 419.48,281.80 422.09,280.45 C423.68,279.63 426.45,277.63 428.24,276.01 C439.94,265.45 452.31,256.97 453.82,258.49 C454.37,259.04 451.75,261.51 431.18,279.85 C422.76,287.36 411.96,297.01 407.18,301.29 C402.41,305.58 396.83,309.96 394.79,311.04 ZM 305.07 548.96 C302.69,550.24 300.95,550.26 299.02,549.04 C297.77,548.25 297.59,544.57 297.86,525.30 C298.04,512.76 298.40,502.27 298.67,502.00 C298.95,501.73 305.09,501.65 312.33,501.84 C326.55,502.21 330.51,503.29 334.03,507.76 C336.25,510.59 336.70,518.02 334.93,522.68 C332.31,529.62 325.02,534.00 316.12,534.00 C307.23,534.00 307.00,534.19 307.00,541.57 C307.00,546.83 306.67,548.11 305.07,548.96 ZM 437.42 550.39 C432.59,552.24 428.22,549.54 426.30,543.50 L 425.34 540.50 L 414.68 540.22 L 404.02 539.93 L 400.93 544.97 C398.07,549.61 397.53,550.00 393.97,550.00 C391.85,550.00 389.92,549.66 389.67,549.25 C389.17,548.40 401.41,516.93 404.93,510.00 C406.19,507.52 408.15,504.49 409.29,503.25 C411.75,500.56 416.09,500.32 418.23,502.75 C421.54,506.50 439.00,544.48 439.00,547.92 C439.00,548.95 438.29,550.06 437.42,550.39 ZM 348.43 550.02 C344.72,551.44 342.30,551.22 341.61,549.42 C341.27,548.55 341.00,538.86 341.00,527.89 C341.00,504.22 341.75,501.00 347.31,501.00 L 350.72 501.00 L 351.23 509.88 C351.51,514.77 352.05,519.27 352.43,519.88 C352.86,520.59 356.91,521.00 363.46,521.00 L 373.79 521.00 L 374.15 512.55 C374.34,507.90 374.96,503.64 375.53,503.07 C376.10,502.50 377.94,501.76 379.62,501.43 L 382.68 500.81 L 383.34 512.16 C383.70,518.40 383.99,529.25 384.00,536.27 L 384.00 549.05 L 381.43 550.02 C380.02,550.56 377.83,551.00 376.57,551.00 C373.86,551.00 373.03,547.68 373.01,536.75 L 373.00 530.00 L 362.61 530.00 C362.10,530.00 361.62,530.00 361.15,530.00 C355.99,529.99 353.45,529.98 352.20,531.25 C350.98,532.49 350.99,534.92 351.00,539.72 C351.00,540.16 351.00,540.62 351.00,541.11 C351.00,548.71 350.89,549.09 348.43,550.02 ZM 661.66 547.46 C658.49,549.32 656.00,549.97 652.41,549.90 C646.62,549.77 632.78,545.85 632.22,544.17 C631.68,542.53 635.88,536.00 637.48,536.00 C638.21,536.00 641.21,537.12 644.15,538.49 C647.09,539.86 650.64,540.98 652.03,540.99 C655.56,541.00 659.00,538.32 659.00,535.56 C659.00,533.73 657.87,532.70 653.75,530.76 C650.86,529.40 646.70,527.71 644.50,526.99 C638.82,525.14 635.21,522.18 633.94,518.32 C631.66,511.41 635.27,505.97 644.47,502.46 C649.83,500.41 658.15,500.84 664.75,503.50 C669.80,505.54 670.16,507.52 666.16,511.34 L 663.33 514.06 L 657.45 512.53 C648.80,510.28 643.00,510.65 643.00,513.45 C643.00,515.80 646.87,518.18 654.53,520.54 C664.12,523.50 666.78,525.22 668.64,529.68 C671.29,536.03 668.34,543.54 661.66,547.46 ZM 725.96 548.07 C725.01,549.84 723.83,549.99 711.21,549.86 C703.67,549.79 696.60,549.55 695.50,549.33 C693.56,548.94 693.51,548.26 693.82,526.73 C694.02,513.18 694.55,504.04 695.19,503.27 C695.77,502.57 697.71,502.00 699.49,502.00 L 702.74 502.00 L 704.20 540.00 L 706.85 540.14 C708.31,540.22 712.49,540.18 716.15,540.05 C724.80,539.73 727.00,540.46 727.00,543.63 C727.00,545.01 726.53,547.00 725.96,548.07 ZM 457.63 478.51 C457.19,479.68 455.16,479.99 448.28,479.97 L 439.50 479.95 L 427.50 457.50 L 406.52 457.31 C385.55,457.12 382.40,456.55 387.19,453.82 C390.39,451.99 420.05,451.98 425.19,453.81 C429.54,455.35 434.13,459.72 438.15,466.15 C441.30,471.20 444.79,474.00 447.93,474.00 C450.55,474.00 452.15,471.03 450.82,468.64 C449.63,466.52 449.00,462.00 449.89,462.00 C451.12,462.01 458.19,477.07 457.63,478.51 ZM 626.78 478.44 C625.27,479.50 622.26,480.00 617.39,480.00 C610.81,480.00 610.18,479.82 609.63,477.75 C608.91,475.05 609.04,447.81 609.89,425.00 C610.49,408.95 610.53,408.72 611.32,416.50 C611.77,420.90 612.50,434.17 612.94,446.00 C613.38,457.83 614.24,468.75 614.85,470.27 C616.87,475.29 623.62,475.93 625.48,471.28 C625.87,470.30 626.60,457.39 627.10,442.58 C627.60,427.77 628.23,415.43 628.50,415.16 C628.78,414.89 629.00,428.67 629.00,445.78 C629.00,476.79 628.99,476.89 626.78,478.44 ZM 493.47 339.42 C492.91,344.63 492.43,345.97 491.13,345.88 C488.07,345.64 470.52,339.06 463.46,335.49 C449.49,328.44 436.00,316.19 436.00,310.55 C436.00,308.49 439.62,299.00 440.41,299.00 C440.58,299.00 440.52,301.81 440.28,305.25 C439.86,311.08 440.04,311.77 442.97,315.46 C444.70,317.64 447.55,320.39 449.31,321.57 C457.91,327.36 462.49,330.00 463.92,330.02 C464.79,330.03 467.75,331.37 470.50,333.00 C473.25,334.63 476.94,335.97 478.70,335.98 C480.46,335.99 483.10,336.55 484.57,337.21 C487.01,338.33 487.47,338.16 490.19,335.12 C491.81,333.30 493.37,332.04 493.66,332.33 C493.94,332.61 493.86,335.80 493.47,339.42 ZM 700.83 478.91 C697.41,480.10 686.73,480.40 685.67,479.33 C685.30,478.97 685.04,464.23 685.09,446.58 C685.17,416.33 685.91,410.17 687.44,427.16 C689.74,452.76 692.19,469.62 693.96,472.00 C694.98,473.38 696.20,474.43 696.66,474.34 C703.01,473.15 703.58,473.24 703.77,475.53 C703.92,477.27 703.22,478.08 700.83,478.91 ZM 480.15 199.36 C476.10,202.46 472.05,205.00 471.13,205.00 C470.22,205.00 460.70,196.10 449.98,185.22 C439.27,174.34 422.96,158.08 413.75,149.09 C399.37,135.06 395.08,130.00 397.54,130.00 C397.84,130.00 414.35,146.20 434.23,166.00 C454.12,185.80 470.82,202.00 471.35,202.00 C471.88,202.00 474.68,200.22 477.56,198.04 C480.44,195.87 484.08,193.78 485.65,193.40 C485.77,193.38 485.88,193.35 485.99,193.32 C487.05,193.07 487.73,192.90 487.82,193.06 C487.98,193.36 486.17,194.74 481.07,198.66 ZM 374.25 477.25 C371.83,479.79 371.02,480.00 363.92,480.00 C358.46,480.00 356.07,479.62 355.71,478.68 C355.43,477.95 357.90,471.54 361.19,464.43 C364.48,457.32 369.20,447.00 371.68,441.50 C376.25,431.36 377.89,428.46 376.47,433.00 C376.04,434.38 375.68,436.06 375.68,436.75 C375.67,437.44 375.34,438.00 374.94,438.00 C374.55,438.00 373.93,439.56 373.57,441.46 C373.22,443.36 371.37,448.33 369.47,452.51 C365.18,461.90 363.99,469.85 366.49,472.35 C368.64,474.49 371.53,473.70 374.56,470.13 C379.79,463.97 381.04,462.70 381.47,463.13 C382.29,463.95 376.92,474.45 374.25,477.25 ZM 459.00 524.15 C463.05,524.91 470.71,524.22 473.24,522.87 C475.36,521.74 476.44,517.88 475.58,514.46 C474.75,511.15 471.48,510.00 462.95,510.00 C455.09,510.00 454.58,510.60 455.18,519.08 C455.48,523.26 455.69,523.54 459.00,524.15 ZM 307.66 525.25 C307.91,525.66 310.76,526.00 313.98,526.00 C318.83,526.00 320.38,525.55 322.92,523.41 C325.39,521.34 326.00,520.05 326.00,516.93 C326.00,511.03 323.14,509.56 313.78,510.65 L 306.50 511.50 L 306.85 518.00 C307.04,521.58 307.40,524.84 307.66,525.25 ZM 547.80 409.58 C544.43,411.35 544.07,411.35 543.38,409.55 C543.07,408.75 541.17,407.11 539.16,405.92 C534.32,403.04 521.23,402.24 511.75,404.24 C505.27,405.60 505.06,405.59 506.62,403.87 C507.51,402.88 510.21,401.32 512.61,400.41 C517.93,398.37 530.69,398.83 536.00,401.24 C544.34,405.03 546.46,405.40 549.33,403.52 C553.07,401.07 552.73,397.94 548.28,393.61 C542.42,387.93 546.91,389.12 553.18,394.92 L 558.50 399.84 L 554.50 404.00 C552.30,406.29 549.28,408.80 547.80,409.58 ZM 571.17 531.19 C570.98,531.63 574.25,532.00 578.42,532.00 C586.87,532.00 587.18,531.67 584.08,525.89 C583.02,523.92 581.66,520.44 581.04,518.15 C580.43,515.87 579.57,514.00 579.14,514.00 C578.52,514.00 575.83,519.80 571.17,531.19 ZM 781.90 476.47 C779.08,479.67 778.30,480.00 773.53,480.00 C767.22,480.00 764.95,478.14 760.03,468.91 C757.14,463.49 757.02,462.94 758.89,463.94 C760.05,464.56 761.76,466.29 762.68,467.79 C768.39,477.00 772.84,478.20 780.29,472.51 C782.80,470.59 785.15,468.11 785.50,467.01 C785.85,465.90 786.61,465.00 787.19,465.00 C787.90,465.00 787.88,465.44 787.13,466.34 C786.52,467.08 786.31,467.98 786.68,468.34 C787.04,468.70 786.81,469.00 786.17,469.00 C785.53,469.00 785.05,469.34 785.12,469.75 C785.44,471.78 784.75,473.22 781.90,476.47 ZM 407.00 530.97 C407.00,531.59 410.03,532.00 414.58,532.00 C418.75,532.00 422.01,531.66 421.83,531.25 C421.64,530.84 420.03,527.70 418.24,524.28 C416.46,520.86 415.00,517.37 415.00,516.53 C415.00,513.94 413.08,514.84 412.38,517.75 C412.01,519.26 410.65,522.62 409.36,525.22 C408.06,527.81 407.00,530.40 407.00,530.97 ZM 608.85 403.43 C608.17,404.00 583.48,404.76 581.50,404.28 C578.08,403.44 577.00,401.90 577.00,397.88 C577.00,393.75 578.44,392.67 579.50,396.00 C580.51,399.17 582.80,399.81 595.83,400.57 C606.22,401.18 610.42,402.10 608.85,403.43 ZM 755.13 455.55 C756.30,458.04 757.08,460.26 756.86,460.48 C756.27,461.06 734.75,418.98 730.69,409.33 C728.80,404.84 727.76,401.37 728.38,401.63 C729.76,402.21 735.00,410.33 735.00,411.90 C735.00,412.53 736.75,416.74 738.88,421.27 C747.08,438.65 748.36,441.52 748.18,442.25 C748.08,442.66 748.53,443.00 749.17,443.00 C749.81,443.00 750.05,443.29 749.70,443.64 C749.35,443.99 749.95,445.52 751.03,447.04 C752.11,448.56 753.00,450.08 753.00,450.42 C753.00,450.75 753.96,453.06 755.13,455.55 ZM 743.00 548.00 C740.64,550.36 734.82,550.69 733.05,548.57 C732.40,547.78 732.01,545.64 732.18,543.82 C732.46,540.92 733.03,540.32 736.70,539.05 C740.57,537.71 741.06,537.74 742.95,539.45 C745.55,541.81 745.57,545.43 743.00,548.00 ZM 609.78 302.49 C609.63,302.62 608.28,303.01 606.80,303.37 C604.35,303.95 604.03,303.70 603.48,300.76 C603.05,298.49 600.23,294.75 594.18,288.42 C589.41,283.43 584.38,278.47 583.00,277.39 C581.62,276.32 579.45,273.96 578.16,272.14 C576.15,269.30 576.08,268.97 577.70,269.84 C578.74,270.39 580.69,272.13 582.04,273.69 C583.39,275.26 588.51,280.13 593.41,284.52 C601.19,291.49 610.61,301.83 609.78,302.49 ZM 518.36 115.00 C518.53,122.97 518.38,130.62 518.02,132.00 C517.66,133.38 517.05,121.45 516.67,105.50 C516.28,89.55 515.55,72.59 515.05,67.82 C514.55,63.04 514.48,57.87 514.90,56.32 C515.51,54.03 515.78,54.82 516.30,60.50 C516.97,67.70 517.79,89.49 518.36,115.00 ZM 685.34 547.75 C682.68,551.33 679.96,551.65 677.21,548.73 C672.78,544.01 675.19,538.66 681.52,539.18 C684.79,539.44 685.63,539.97 686.43,542.25 C687.20,544.46 686.98,545.55 685.34,547.75 ZM 477.16 413.67 C476.30,415.21 473.00,416.50 473.00,415.30 C473.00,415.01 474.42,412.11 476.16,408.85 C479.34,402.88 487.90,394.09 493.84,390.69 C498.41,388.08 497.74,389.59 491.74,395.40 C488.85,398.20 485.29,402.08 483.84,404.00 C482.39,405.92 480.24,408.51 479.06,409.75 C477.89,410.99 477.19,412.00 477.51,412.00 C477.83,412.00 477.68,412.75 477.16,413.67 ZM 541.50 465.00 C544.02,467.78 546.66,467.50 550.08,464.08 C555.69,458.47 552.77,455.25 545.54,459.09 C543.12,460.37 541.36,461.78 541.63,462.21 C541.90,462.64 541.57,463.00 540.90,463.00 C540.15,463.00 540.38,463.76 541.50,465.00 ZM 661.74 402.26 C660.35,404.37 659.48,404.51 646.88,404.75 C637.81,404.92 633.98,404.69 635.00,404.02 C635.83,403.47 640.33,403.02 645.00,403.00 C649.67,402.99 655.69,402.31 658.36,401.50 L 663.23 400.03 ZM 418.00 435.43 C418.00,440.47 416.41,438.55 413.65,430.15 C412.08,425.39 410.58,420.94 410.31,420.25 C410.05,419.56 410.21,419.02 410.67,419.04 C411.12,419.06 412.54,421.43 413.82,424.29 C415.09,427.16 416.55,430.28 417.07,431.24 C417.58,432.19 418.00,434.08 418.00,435.43 ZM 567.42 259.66 C573.24,264.91 574.41,266.86 570.49,264.80 C567.93,263.45 554.00,249.83 554.00,248.67 C554.00,247.79 556.58,249.90 567.42,259.66 ZM 310.38 437.56 C311.11,439.46 312.01,439.34 314.91,436.93 C317.59,434.70 316.91,433.22 313.02,432.78 C310.48,432.49 309.28,434.67 310.38,437.56 ZM 776.60 447.75 C773.87,453.18 772.14,455.10 774.35,450.25 C780.39,436.94 782.37,433.00 783.02,433.00 C783.92,433.00 781.87,439.23 780.34,441.13 C779.73,441.89 778.05,444.86 776.60,447.75 ZM 520.42 252.04 C515.36,254.20 513.40,254.46 512.55,253.08 C511.98,252.16 515.71,250.70 521.75,249.49 C526.38,248.56 525.77,249.74 520.42,252.04 ZM 827.97 479.04 C824.95,480.95 821.00,479.40 821.00,476.30 C821.00,474.76 821.45,474.69 823.76,475.93 C824.72,476.44 826.39,477.14 827.47,477.48 C829.12,478.00 829.20,478.26 827.97,479.04 ZM 704.00 469.64 C704.00,470.94 703.44,471.96 702.75,471.92 C698.52,471.65 697.57,468.51 701.50,467.76 C703.60,467.35 704.00,467.66 704.00,469.64 ZM 588.81 216.74 C588.43,218.73 585.51,219.63 584.53,218.06 C583.57,216.49 584.84,215.00 587.13,215.00 C588.51,215.00 589.04,215.55 588.81,216.74 ZM 228.37 386.22 C227.95,386.88 227.35,389.02 227.02,390.97 C226.48,394.13 226.35,394.25 225.77,392.14 C225.03,389.43 226.44,385.00 228.03,385.00 C228.63,385.00 228.78,385.55 228.37,386.22 ZM 581.00 386.79 C581.00,387.87 580.29,389.35 579.41,390.07 C578.02,391.23 577.87,391.04 578.16,388.52 C578.55,385.26 581.00,383.77 581.00,386.79 ZM 494.00 460.00 C494.00,460.55 494.90,461.00 496.00,461.00 C497.10,461.00 498.00,460.55 498.00,460.00 C498.00,459.45 497.10,459.00 496.00,459.00 C494.90,459.00 494.00,459.45 494.00,460.00 Z" fill="rgb(4,11,36)"/>
<path d="M 489.78 149.75 C488.13,151.76 485.42,151.20 482.36,148.22 C478.27,144.23 468.00,131.97 468.00,131.08 C468.00,130.67 462.38,125.42 455.50,119.41 C448.63,113.41 443.01,107.98 443.00,107.35 C443.00,106.72 440.52,103.94 437.50,101.17 C430.06,94.38 430.18,92.95 438.93,84.71 C448.89,75.30 460.64,67.65 473.00,62.51 C479.36,59.87 488.41,57.04 490.60,57.01 C492.07,57.00 491.27,147.94 489.78,149.75 ZM 755.13 455.55 C753.96,453.06 753.00,450.75 753.00,450.42 C753.00,450.08 752.11,448.56 751.03,447.04 C749.95,445.52 749.35,443.99 749.70,443.64 C750.05,443.29 749.81,443.00 749.17,443.00 C748.53,443.00 748.08,442.66 748.18,442.25 C748.36,441.52 747.08,438.65 738.88,421.27 C736.75,416.74 735.00,412.53 735.00,411.90 C735.00,410.33 729.76,402.21 728.38,401.63 C727.76,401.37 728.80,404.84 730.69,409.33 C730.89,409.81 731.14,410.38 731.43,411.02 C729.93,407.87 728.63,405.08 727.62,402.81 C725.48,398.03 722.44,392.88 720.87,391.37 C719.29,389.86 718.00,387.79 718.00,386.78 C718.00,385.08 718.85,384.95 728.25,385.22 L 738.50 385.50 L 741.71 391.50 C746.09,399.66 761.00,431.71 761.00,432.94 C761.00,434.11 771.02,451.90 772.03,452.52 C772.65,452.90 785.13,427.98 785.57,425.49 C785.91,423.58 794.25,404.49 798.23,396.50 C801.37,390.21 802.72,387.36 804.96,386.07 C806.83,385.00 809.32,385.00 813.95,385.00 L 814.67 385.00 L 824.03 385.00 L 822.59 388.25 C819.21,395.92 809.72,416.90 807.55,421.50 C806.26,424.25 803.63,430.10 801.71,434.50 C799.78,438.90 796.17,446.78 793.68,452.01 C791.19,457.24 788.17,464.14 786.97,467.34 C786.86,467.64 786.74,467.95 786.61,468.26 C786.34,467.86 786.56,467.03 787.13,466.34 C787.88,465.44 787.90,465.00 787.19,465.00 C786.61,465.00 785.85,465.90 785.50,467.01 C785.15,468.11 782.80,470.59 780.29,472.51 C772.84,478.20 768.39,477.00 762.68,467.79 C761.76,466.29 760.05,464.56 758.89,463.94 C758.41,463.69 758.07,463.53 757.86,463.53 C754.44,457.07 750.28,448.99 746.08,440.71 C751.65,451.54 756.58,460.75 756.86,460.48 C757.08,460.26 756.30,458.04 755.13,455.55 ZM 588.81 216.74 C588.97,215.89 588.75,215.37 588.11,215.14 C598.57,214.06 631.06,212.06 649.89,211.43 L 670.29 210.76 L 669.61 215.91 C669.23,218.74 667.57,224.98 665.91,229.78 C662.14,240.66 651.02,263.63 647.48,267.84 C646.02,269.58 644.52,270.99 644.16,270.97 C643.80,270.95 637.76,265.33 630.74,258.47 C623.73,251.61 617.59,246.00 617.11,246.00 C616.63,246.00 615.50,244.89 614.61,243.53 C613.72,242.17 610.41,239.16 607.25,236.84 C604.09,234.52 598.93,230.17 595.78,227.17 C592.64,224.17 588.70,220.89 587.03,219.87 C586.39,219.48 585.85,219.11 585.41,218.75 C586.67,219.18 588.51,218.29 588.81,216.74 ZM 608.85 403.43 C610.42,402.10 606.22,401.18 595.83,400.57 C582.80,399.81 580.51,399.17 579.50,396.00 C578.73,393.57 577.75,393.49 577.28,395.23 C577.31,394.89 577.34,394.55 577.37,394.19 C577.71,390.14 578.24,386.42 578.55,385.91 C578.59,385.86 578.81,385.81 579.22,385.75 C578.74,386.34 578.31,387.31 578.16,388.52 C577.87,391.04 578.02,391.23 579.41,390.07 C580.29,389.35 581.00,387.87 581.00,386.79 C581.00,386.27 580.93,385.88 580.80,385.62 C586.42,385.25 602.00,385.00 621.69,385.00 L 664.26 385.00 L 663.79 392.99 C663.62,396.09 663.48,398.38 663.06,400.08 L 658.36 401.50 C655.69,402.31 649.67,402.99 645.00,403.00 C640.33,403.02 635.83,403.47 635.00,404.02 C633.98,404.69 637.81,404.92 646.88,404.75 C659.48,404.51 660.35,404.37 661.74,402.26 L 662.98 400.40 C661.70,404.92 658.00,404.98 644.62,405.22 L 629.50 405.50 L 629.25 441.00 C629.15,456.46 629.08,465.20 628.85,470.28 C629.00,465.70 629.00,458.23 629.00,445.78 C629.00,428.67 628.78,414.89 628.50,415.16 C628.23,415.43 627.60,427.77 627.10,442.58 C626.60,457.39 625.87,470.30 625.48,471.28 C623.62,475.93 616.87,475.29 614.85,470.27 C614.24,468.75 613.38,457.83 612.94,446.00 C612.50,434.17 611.77,420.90 611.32,416.50 C610.53,408.72 610.49,408.95 609.89,425.00 C609.77,428.31 609.66,431.70 609.57,435.11 L 610.23 403.88 L 600.02 404.09 C604.75,403.90 608.59,403.65 608.85,403.43 ZM 281.67 427.33 C282.03,427.70 288.76,428.00 296.64,428.00 L 282.18 428.00 L 282.25 432.45 C282.30,436.08 281.78,437.44 279.41,439.81 C277.81,441.41 275.81,443.74 274.97,444.98 L 273.44 447.24 L 270.72 443.32 C268.92,440.72 267.52,436.71 266.56,431.45 C264.56,420.45 263.24,399.04 264.12,391.65 C264.91,384.89 264.81,384.48 262.51,385.36 C261.98,385.56 261.63,386.37 261.41,389.44 C261.49,386.65 261.60,385.05 261.71,384.94 C262.15,384.53 275.55,384.51 291.50,384.90 C317.79,385.53 320.67,385.74 325.08,387.67 C323.82,387.24 322.66,387.07 321.68,387.22 C319.79,387.52 320.10,387.97 324.00,390.57 C329.44,394.21 336.28,400.52 336.65,402.25 C336.80,402.94 337.41,405.48 338.00,407.90 C339.68,414.78 338.38,420.26 333.68,426.04 C331.33,428.93 329.05,430.83 328.30,430.53 C327.58,430.24 326.30,429.72 325.44,429.37 C324.37,428.94 323.70,429.45 323.29,430.99 L 322.70 433.25 L 321.48 430.96 C320.46,429.06 320.59,427.92 322.24,424.20 C323.32,421.74 324.42,417.20 324.67,414.11 C325.46,404.44 321.23,400.27 308.16,397.85 C299.45,396.24 282.00,399.69 282.00,403.03 C282.00,403.62 288.66,404.00 299.07,404.00 C284.25,404.00 282.98,404.16 282.04,405.93 C280.90,408.05 280.59,426.26 281.67,427.33 ZM 477.16 413.67 C477.68,412.75 477.83,412.00 477.51,412.00 C477.19,412.00 477.89,410.99 479.06,409.75 C480.24,408.51 482.39,405.92 483.84,404.00 C485.29,402.08 488.85,398.20 491.74,395.40 C497.70,389.62 498.40,388.10 493.93,390.64 C497.27,388.56 500.77,386.92 504.27,385.85 C509.91,384.14 513.08,383.85 523.32,384.15 C535.14,384.49 535.89,384.64 543.05,388.19 C544.12,388.72 545.27,389.35 546.41,390.03 C544.98,389.52 545.18,390.60 548.28,393.61 C552.73,397.94 553.07,401.07 549.33,403.52 C546.46,405.40 544.34,405.03 536.00,401.24 C530.69,398.83 517.93,398.37 512.61,400.41 C510.21,401.32 507.51,402.88 506.62,403.87 C505.22,405.42 505.25,405.58 510.01,404.60 C509.00,405.00 508.03,405.54 506.77,406.28 C499.68,410.45 494.60,417.92 492.90,425.97 C493.28,423.72 493.88,421.47 494.73,419.27 C495.90,416.21 493.09,419.02 491.38,422.61 C489.96,425.60 489.82,427.85 490.47,437.32 L 490.58 438.89 C491.51,452.45 491.72,455.60 490.62,456.16 C490.29,456.33 489.83,456.27 489.24,456.18 C489.16,456.17 489.09,456.16 489.01,456.15 C485.80,455.69 481.00,450.67 480.99,447.76 C480.99,446.52 480.26,444.15 479.37,442.50 C478.08,440.10 474.18,424.16 474.03,420.69 C474.01,420.25 473.55,420.16 473.00,420.50 C472.27,420.95 471.98,424.57 472.09,429.18 C472.06,428.20 472.04,427.21 472.03,426.22 C472.01,420.65 472.14,418.13 473.02,415.47 C473.33,416.37 476.34,415.14 477.16,413.67 ZM 445.61 266.93 C453.08,260.16 454.20,258.87 453.82,258.49 C452.31,256.97 439.94,265.45 428.24,276.01 C426.45,277.63 423.68,279.63 422.09,280.45 C419.48,281.80 419.07,281.79 417.85,280.28 C416.91,279.12 416.88,278.84 417.75,279.37 C418.44,279.78 419.00,279.64 419.00,279.06 C419.00,277.59 417.27,277.73 416.30,279.27 C415.47,280.59 410.00,283.35 410.00,282.45 C410.00,279.94 416.02,271.32 421.31,266.25 C424.89,262.81 429.15,258.21 430.76,256.01 C432.37,253.82 433.95,252.28 434.26,252.59 C434.57,252.90 435.91,251.55 437.25,249.58 C438.58,247.62 439.96,246.29 440.30,246.63 C440.64,246.98 441.46,246.09 442.11,244.66 C442.76,243.23 443.79,242.35 444.40,242.69 C445.00,243.04 445.17,242.96 444.77,242.51 C444.36,242.06 444.81,241.13 445.76,240.43 C446.72,239.73 447.26,238.93 446.98,238.64 C446.69,238.36 442.84,241.36 438.43,245.31 C434.94,248.44 428.17,254.36 421.84,259.83 C428.76,253.82 437.16,246.41 442.46,241.61 C449.08,235.62 455.62,230.01 457.00,229.13 C458.38,228.26 459.73,227.25 460.00,226.88 C460.27,226.52 464.61,222.68 469.64,218.36 C474.67,214.04 482.55,207.14 487.14,203.03 C495.48,195.59 494.76,197.16 485.75,206.06 C483.14,208.64 481.00,211.21 481.00,211.77 C481.00,212.33 480.37,213.03 479.59,213.33 C477.26,214.22 476.59,219.73 478.47,222.59 C480.89,226.29 483.89,227.08 486.59,224.74 C487.82,223.67 489.13,222.88 489.50,222.99 C489.88,223.10 491.59,221.91 493.31,220.35 C495.11,218.70 495.84,218.34 495.03,219.50 C494.16,220.76 494.57,220.57 496.14,219.00 C499.40,215.73 508.52,207.89 513.21,204.32 C515.25,202.77 518.85,199.94 521.21,198.04 C524.34,195.52 524.96,195.25 523.50,197.04 C522.40,198.39 520.88,199.89 520.12,200.37 C519.36,200.85 516.43,203.39 513.62,206.01 C502.33,216.50 482.12,234.81 476.09,240.00 C471.83,243.67 459.10,254.93 445.61,266.93 ZM 704.00 477.80 L 700.86 478.90 C703.22,478.07 703.92,477.26 703.77,475.53 C703.58,473.24 703.01,473.15 696.66,474.34 C696.20,474.43 694.98,473.38 693.96,472.00 C692.19,469.62 689.74,452.76 687.44,427.16 C685.91,410.17 685.17,416.33 685.09,446.58 C685.04,462.43 685.25,475.93 685.56,478.79 C685.55,478.77 685.55,478.76 685.54,478.75 C684.65,475.89 684.29,387.24 685.17,385.67 C685.91,384.35 687.63,384.00 693.47,384.00 C697.52,384.00 701.55,384.27 702.42,384.61 C703.83,385.15 704.00,390.22 704.00,431.51 L 704.00 477.80 ZM 496.94 303.75 C496.21,306.93 495.06,317.94 493.82,333.30 C493.80,332.76 493.74,332.41 493.66,332.33 C493.37,332.04 491.81,333.30 490.19,335.12 C487.47,338.16 487.01,338.33 484.57,337.21 C483.10,336.55 480.46,335.99 478.70,335.98 C476.94,335.97 473.25,334.63 470.50,333.00 C467.75,331.37 464.79,330.03 463.92,330.02 C462.49,330.00 457.91,327.36 449.31,321.57 C447.55,320.39 444.70,317.64 442.97,315.46 C440.04,311.77 439.86,311.08 440.28,305.25 C440.52,301.84 440.58,299.04 440.41,299.00 C445.10,289.89 452.26,278.74 455.38,276.81 C456.00,276.43 459.76,272.83 463.74,268.81 C467.72,264.79 470.99,261.74 470.99,262.04 C471.00,262.34 466.99,266.75 462.10,271.84 C457.20,276.94 452.65,282.43 451.98,284.05 C451.31,285.67 450.37,287.00 449.90,287.00 C448.52,287.00 445.11,294.45 444.67,298.40 C443.98,304.66 446.02,305.89 457.07,305.87 C467.99,305.85 474.35,306.70 478.30,308.69 C479.84,309.47 481.89,309.85 482.85,309.55 C483.82,309.24 485.48,309.65 486.55,310.46 C487.62,311.27 488.99,311.95 489.59,311.97 C490.86,312.01 493.00,307.71 493.00,305.11 C493.00,303.47 495.87,300.00 497.22,300.00 C497.53,300.00 497.41,301.69 496.94,303.75 ZM 418.00 435.43 C418.00,434.08 417.58,432.19 417.07,431.24 C416.55,430.28 415.09,427.16 413.82,424.29 C412.54,421.43 411.12,419.06 410.67,419.04 C410.21,419.02 410.05,419.56 410.31,420.25 C410.45,420.60 410.90,421.91 411.51,423.73 C409.76,418.96 408.02,414.69 407.36,413.92 C405.58,411.85 405.63,410.00 407.46,410.00 C408.30,410.00 410.48,413.29 412.60,417.75 C414.62,422.01 417.33,426.64 418.62,428.04 C419.96,429.49 421.69,433.47 422.63,437.28 C424.00,442.83 424.89,444.44 427.84,446.69 C429.79,448.18 433.05,451.11 435.09,453.21 C439.68,457.94 442.29,457.55 441.83,452.20 C441.61,449.72 441.97,448.54 443.01,448.25 C444.32,447.90 444.32,447.98 443.00,448.91 C441.67,449.85 441.67,449.97 443.00,449.99 C444.01,450.00 448.50,457.87 452.24,465.36 C451.17,463.39 450.26,462.01 449.89,462.00 C449.00,462.00 449.63,466.52 450.82,468.64 C452.15,471.03 450.55,474.00 447.93,474.00 C444.79,474.00 441.30,471.20 438.15,466.15 C434.13,459.72 429.54,455.35 425.19,453.81 C420.05,451.98 390.39,451.99 387.19,453.82 C383.43,455.96 384.56,456.77 395.34,457.11 C385.51,457.24 383.90,458.12 382.80,460.80 C382.33,461.92 381.90,462.97 381.48,463.95 C381.57,463.53 381.58,463.24 381.47,463.13 C381.04,462.70 379.79,463.97 374.56,470.13 C371.53,473.70 368.64,474.49 366.49,472.35 C363.99,469.85 365.18,461.90 369.47,452.51 C371.37,448.33 373.22,443.36 373.57,441.46 C373.93,439.56 374.55,438.00 374.94,438.00 C375.34,438.00 375.67,437.44 375.68,436.75 C375.68,436.06 376.04,434.38 376.47,433.00 C377.89,428.46 376.25,431.36 371.68,441.50 C370.11,445.00 367.62,450.44 365.18,455.78 C367.64,450.33 370.15,444.69 371.74,441.00 C374.23,435.23 376.65,430.00 377.14,429.39 C377.62,428.78 378.89,425.72 379.97,422.59 C381.04,419.47 382.78,415.24 383.83,413.20 C384.88,411.17 386.21,408.38 386.78,407.00 C390.73,397.50 394.05,391.00 394.95,391.00 C396.23,391.00 396.31,392.26 395.11,393.55 C394.62,394.07 393.01,398.10 391.53,402.50 C390.05,406.90 387.52,413.31 385.92,416.75 C384.31,420.19 383.00,423.59 383.00,424.30 C383.00,425.02 382.60,426.03 382.12,426.55 C381.63,427.07 379.83,432.07 378.12,437.66 C374.68,448.86 374.11,455.44 376.50,456.36 C377.33,456.68 378.00,456.53 378.00,456.04 C378.00,455.54 379.01,454.82 380.25,454.43 C384.04,453.24 391.83,446.66 392.89,443.75 C393.89,441.01 393.94,441.00 403.37,441.00 C413.89,441.00 416.00,440.53 416.00,438.19 C416.00,437.59 415.58,435.95 414.93,433.79 C416.90,438.99 418.00,439.63 418.00,435.43 ZM 85.00 385.16 C90.37,385.04 98.00,385.00 108.61,385.00 L 143.00 385.00 L 142.99 391.25 C142.98,395.75 142.81,398.38 142.13,400.06 C142.19,398.69 142.28,395.54 142.35,392.25 C142.47,386.68 142.19,385.00 141.13,385.00 C140.12,385.00 140.04,385.34 140.82,386.28 C141.50,387.10 141.55,388.10 140.96,389.03 C140.45,389.84 140.02,391.68 140.02,393.13 C139.99,397.07 137.85,398.26 131.78,397.70 C128.88,397.43 125.15,396.91 123.50,396.54 C121.85,396.18 119.42,395.66 118.11,395.38 C116.31,395.01 116.00,394.60 116.86,393.74 C119.65,390.95 116.14,389.36 111.95,391.53 C109.87,392.60 106.34,392.99 99.75,392.88 C94.65,392.79 89.49,393.03 88.29,393.41 C85.75,394.21 86.21,396.61 89.08,397.52 C91.33,398.24 91.14,401.08 88.67,403.81 C87.09,405.56 87.07,406.18 88.42,411.35 C89.23,414.45 89.71,417.89 89.50,418.98 C89.29,420.08 89.71,421.57 90.43,422.28 C92.59,424.45 93.28,427.95 91.88,429.65 C91.17,430.50 90.71,432.91 90.86,435.00 C91.12,438.60 89.42,443.00 87.76,443.00 C86.43,443.00 86.94,436.46 88.43,434.44 C89.70,432.72 89.62,432.25 87.75,430.25 C86.60,429.01 84.86,428.00 83.88,428.00 C80.97,428.00 80.91,426.44 83.71,424.00 C86.34,421.72 86.34,421.69 84.34,420.08 C82.11,418.27 80.61,410.87 80.73,402.25 C80.89,391.16 82.09,388.00 86.12,388.00 C87.70,388.00 89.00,387.58 89.00,387.07 C89.00,386.55 90.24,385.95 91.75,385.72 C93.20,385.50 90.19,385.25 85.00,385.16 ZM 228.37 386.22 C228.78,385.55 228.63,385.00 228.03,385.00 L 228.03 385.00 C230.97,383.01 231.92,383.85 230.29,387.13 C228.92,389.87 228.87,392.12 229.89,405.38 C231.54,426.80 232.76,433.60 235.50,436.79 L 237.79 439.46 L 240.00 435.73 C241.21,433.68 242.59,432.00 243.08,432.00 C244.81,432.00 245.26,437.37 244.17,445.07 C243.38,450.65 241.86,455.72 239.67,460.20 C239.93,458.88 238.85,459.25 236.38,461.29 C232.03,464.87 225.11,467.34 223.40,465.92 C222.64,465.29 222.24,464.43 222.50,464.00 C222.76,463.57 222.33,462.69 221.55,462.04 C219.94,460.70 220.51,458.45 223.21,455.55 C224.20,454.48 225.51,452.01 226.11,450.05 C227.55,445.38 228.38,406.77 227.17,401.00 C226.32,396.96 226.21,397.52 226.08,406.50 C226.01,412.00 225.53,423.23 225.03,431.45 C224.99,432.06 224.96,432.66 224.92,433.23 C225.19,428.02 225.32,421.37 225.41,412.61 C225.52,402.39 225.61,396.15 225.81,392.27 C226.35,394.25 226.49,394.07 227.02,390.97 C227.35,389.02 227.95,386.88 228.37,386.22 ZM 177.98 386.32 C177.76,386.05 177.48,386.00 177.15,386.00 C175.50,386.00 175.23,387.23 174.64,397.75 C173.90,410.63 172.26,421.72 170.97,422.52 C169.66,423.33 168.68,420.98 168.81,417.39 C168.88,415.57 168.27,412.49 167.45,410.54 C166.62,408.56 165.80,402.69 165.58,397.25 C165.23,388.62 164.76,384.98 163.48,384.27 C164.95,384.02 166.82,384.02 169.17,384.02 C170.03,384.01 170.81,383.99 171.53,383.98 C173.96,383.91 175.61,383.87 176.72,384.62 C177.25,384.98 177.66,385.52 177.98,386.32 ZM 827.97 479.04 C829.20,478.26 829.12,478.00 827.47,477.48 C826.39,477.14 824.72,476.44 823.76,475.93 C822.06,475.02 821.36,474.81 821.12,475.39 C821.79,473.24 825.24,465.67 829.36,457.36 C836.83,442.28 853.01,408.77 856.92,400.25 C858.36,397.13 860.00,395.92 860.00,397.98 C860.00,399.01 853.87,412.13 852.99,413.00 C852.51,413.47 851.33,416.08 845.27,430.00 C841.96,437.63 835.06,451.19 833.58,453.00 C831.45,455.61 826.80,467.09 826.26,471.07 C825.79,474.57 825.98,474.96 828.43,475.57 C829.91,475.94 833.08,476.03 835.48,475.76 C839.58,475.29 839.74,475.36 838.17,476.99 C837.07,478.13 834.23,478.92 829.90,479.31 C828.86,479.40 827.92,479.46 827.10,479.49 C827.39,479.37 827.69,479.22 827.97,479.04 ZM 864.00 519.13 C864.00,520.15 770.69,520.13 767.00,519.10 C764.75,518.47 764.49,517.87 764.38,512.95 C764.26,507.25 764.70,505.00 765.96,505.00 C766.37,505.00 766.50,507.15 766.25,509.79 C765.89,513.48 766.18,514.90 767.49,515.99 C768.89,517.15 777.67,517.48 816.60,517.83 C842.67,518.06 864.00,518.64 864.00,519.13 ZM 389.74 264.27 C388.44,268.17 381.27,262.72 372.98,251.54 C369.14,246.36 366.00,241.86 366.00,241.52 C366.00,241.19 365.11,239.96 364.03,238.80 C362.94,237.63 359.69,232.01 356.81,226.30 C352.63,218.04 351.78,215.58 352.64,214.21 C354.26,211.64 356.49,212.12 356.60,215.08 C356.65,216.50 357.07,218.97 357.52,220.58 C357.97,222.19 358.37,223.76 358.42,224.09 C358.46,224.41 360.08,227.11 362.00,230.09 C363.92,233.06 366.40,236.91 367.50,238.62 C375.80,251.58 384.22,261.28 388.31,262.59 C389.30,262.91 389.94,263.67 389.74,264.27 ZM 553.07 340.43 C546.62,342.29 537.88,342.48 536.20,340.80 C535.40,340.00 535.07,336.29 535.21,329.55 L 535.42 319.50 L 535.74 328.69 C536.02,336.33 536.36,337.98 537.79,338.41 C541.25,339.46 560.13,336.46 564.78,334.11 C569.63,331.67 574.00,330.12 574.00,330.86 C574.00,331.98 559.76,338.50 553.07,340.43 ZM 255.87 513.69 C255.88,513.19 255.88,512.67 255.87,512.16 L 255.78 504.82 L 252.14 505.54 C250.14,505.94 248.05,506.23 247.50,506.19 C230.64,505.05 203.11,504.62 144.54,504.56 L 72.58 504.50 L 164.20 504.24 L 255.81 503.99 L 255.88 511.74 C255.89,512.40 255.89,513.05 255.87,513.69 ZM 925.89 521.63 C925.27,522.38 924.25,522.95 923.63,522.88 C923.01,522.81 920.03,522.41 917.00,521.98 C913.97,521.55 903.49,520.88 893.69,520.49 C883.90,520.10 876.09,519.58 876.33,519.34 C877.00,518.66 920.43,518.94 923.94,519.64 C926.42,520.13 926.81,520.53 925.89,521.63 ZM 541.50 465.00 C540.38,463.76 540.15,463.00 540.90,463.00 C541.57,463.00 541.90,462.64 541.63,462.21 C541.36,461.78 543.12,460.37 545.54,459.09 C552.77,455.25 555.69,458.47 550.08,464.08 C546.66,467.50 544.02,467.78 541.50,465.00 ZM 806.58 400.09 C808.30,401.99 808.40,401.91 811.12,396.96 C814.15,391.40 813.99,389.00 810.56,389.00 C806.71,389.00 803.82,397.04 806.58,400.09 ZM 659.50 186.92 C656.82,187.99 635.00,188.96 635.00,188.01 C635.00,186.80 641.83,186.02 652.00,186.07 C657.78,186.11 660.72,186.44 659.50,186.92 ZM 310.38 437.56 C309.28,434.67 310.48,432.49 313.02,432.78 C316.91,433.22 317.59,434.70 314.91,436.93 C312.01,439.34 311.11,439.46 310.38,437.56 ZM 776.60 447.75 C778.05,444.86 779.73,441.89 780.34,441.13 C781.87,439.23 783.92,433.00 783.02,433.00 C782.37,433.00 780.39,436.94 774.35,450.25 C772.14,455.10 773.87,453.18 776.60,447.75 ZM 704.00 469.64 C704.00,467.66 703.60,467.35 701.50,467.76 C697.57,468.51 698.52,471.65 702.75,471.92 C703.44,471.96 704.00,470.94 704.00,469.64 ZM 512.90 229.09 C510.69,231.01 507.97,231.65 508.03,230.25 C508.05,229.84 509.18,228.69 510.54,227.70 C513.79,225.33 515.83,226.54 512.90,229.09 ZM 494.00 460.00 C494.00,459.45 494.90,459.00 496.00,459.00 C497.10,459.00 498.00,459.45 498.00,460.00 C498.00,460.55 497.10,461.00 496.00,461.00 C494.90,461.00 494.00,460.55 494.00,460.00 ZM 515.44 403.62 C521.00,402.91 527.18,403.00 532.08,403.77 C529.83,403.57 527.05,403.50 523.50,403.50 C519.93,403.50 517.39,403.52 515.44,403.62 ZM 493.14 438.83 C494.88,446.21 498.95,452.72 504.26,456.38 C498.51,452.42 494.66,446.03 493.14,438.83 ZM 394.79 311.04 C396.58,310.10 401.08,306.62 405.37,302.89 C398.60,308.86 396.89,310.04 394.30,311.36 C393.78,311.63 393.12,311.88 392.39,312.10 C393.19,311.81 394.00,311.46 394.79,311.04 ZM 610.16 480.00 L 609.76 478.20 C610.32,479.84 611.32,480.00 617.39,480.00 ZM 786.29 469.00 C785.94,469.80 785.54,470.62 785.11,471.43 C785.22,470.88 785.21,470.34 785.12,469.75 C785.05,469.34 785.53,469.00 786.17,469.00 C786.21,469.00 786.25,469.00 786.29,469.00 ZM 504.88 478.20 C510.08,480.14 514.11,481.28 517.97,481.73 C516.32,481.61 514.79,481.38 513.47,481.07 C511.40,480.57 508.17,479.47 504.88,478.20 ZM 489.40 393.81 C485.44,397.02 481.21,401.45 478.35,405.41 C481.37,401.08 485.18,397.11 489.40,393.81 ZM 181.08 449.40 C179.18,444.53 179.00,436.63 179.00,414.63 C179.00,401.39 178.98,394.25 178.75,390.42 C179.04,393.84 179.03,399.06 179.01,406.98 C179.01,409.18 179.00,411.60 179.00,414.24 C179.00,436.54 179.17,444.52 181.08,449.40 ZM 385.84 312.98 C383.00,312.88 381.63,312.23 379.69,310.20 C381.23,311.81 383.40,312.74 385.84,312.98 ZM 485.90 466.46 C489.89,470.36 492.55,472.54 496.01,474.40 C494.95,473.87 494.08,473.40 493.50,473.02 C491.31,471.58 488.56,469.15 485.90,466.46 ZM 139.69 402.54 C139.32,402.71 138.91,402.86 138.46,403.01 C137.62,403.29 134.93,403.61 131.16,403.90 C135.18,403.54 137.94,403.10 139.69,402.54 ZM 478.83 458.23 C477.99,457.05 477.33,455.98 476.91,455.09 C476.25,453.68 475.63,451.99 475.08,450.09 C476.03,453.14 477.22,455.75 478.83,458.23 ZM 765.71 477.44 C765.70,477.42 765.68,477.40 765.66,477.38 C767.80,479.43 770.05,480.00 773.53,480.00 C769.22,480.00 767.81,479.54 765.71,477.44 ZM 224.46 439.63 C224.03,444.45 223.54,446.85 222.52,449.30 C223.42,446.81 224.03,443.85 224.46,439.63 ZM 221.70 478.03 C225.07,476.46 228.68,473.95 231.76,471.16 C228.84,473.97 225.48,476.28 221.70,478.03 ZM 556.00 397.53 L 553.18 394.92 C552.58,394.37 552.00,393.86 551.44,393.39 C552.68,394.31 553.73,395.19 554.45,395.94 ZM 158.54 391.38 C158.17,395.41 158.24,402.05 158.52,413.61 C158.25,402.63 158.08,395.72 158.54,391.38 ZM 691.31 479.99 C694.74,479.96 698.80,479.58 700.74,478.94 C698.43,479.71 694.56,480.06 691.31,479.99 ZM 216.49 458.43 C213.93,460.57 210.71,461.58 206.02,461.88 C210.62,461.55 213.91,460.49 216.49,458.43 ZM 585.07 215.54 C584.34,216.02 584.03,216.78 584.31,217.60 C583.81,216.81 583.96,216.14 584.79,215.63 C584.84,215.60 584.93,215.57 585.07,215.54 ZM 332.10 391.90 C335.09,394.29 337.57,397.22 339.33,400.50 C337.64,397.35 334.97,394.29 332.10,391.90 ZM 609.18 467.44 C609.23,472.10 609.34,475.55 609.52,477.08 L 609.46 476.80 C609.29,476.07 609.20,472.62 609.18,467.44 ZM 541.53 407.57 C542.49,408.34 543.20,409.08 543.38,409.55 C543.40,409.61 543.43,409.67 543.45,409.72 C543.34,409.59 543.22,409.45 543.09,409.30 C542.56,408.65 542.05,408.08 541.53,407.57 ZM 437.29 305.71 C436.59,307.71 436.04,309.60 436.00,310.46 C436.00,310.41 436.00,310.37 436.00,310.32 C436.00,309.35 436.48,307.73 437.29,305.71 ZM 578.96 403.24 C578.54,403.01 578.20,402.72 577.93,402.38 C577.44,401.76 577.21,400.94 577.12,399.87 C577.35,401.47 577.91,402.52 578.96,403.24 ZM 551.43 406.89 C552.48,405.99 553.56,404.98 554.50,404.00 L 558.38 399.97 L 558.41 400.00 L 554.45 404.08 C553.55,405.02 552.48,406.00 551.43,406.89 ZM 463.46 335.49 C455.65,331.55 448.14,326.12 442.95,321.05 C448.18,326.12 455.75,331.60 463.46,335.49 ZM 374.25 477.25 C375.15,476.31 376.35,474.50 377.52,472.48 C376.33,474.68 375.31,476.15 374.26,477.25 C373.22,478.33 372.48,478.99 371.42,479.39 C372.48,478.99 373.22,478.33 374.25,477.25 ZM 476.18 408.82 L 476.16 408.85 C475.37,410.34 474.64,411.76 474.08,412.89 C474.36,412.29 474.67,411.65 475.03,410.94 C475.39,410.23 475.77,409.52 476.18,408.82 ZM 407.79 300.74 C409.45,299.26 411.68,297.27 414.20,295.01 C411.72,297.23 409.61,299.13 407.79,300.74 ZM 492.62 344.53 C492.30,345.57 491.89,345.89 491.27,345.88 C491.87,345.88 492.28,345.52 492.62,344.53 ZM 781.79 476.58 C780.27,478.31 779.35,479.18 777.99,479.60 C779.34,479.18 780.26,478.32 781.79,476.58 ZM 478.53 341.83 C472.96,339.74 466.95,337.26 463.46,335.49 C466.94,337.25 472.95,339.73 478.53,341.83 ZM 457.62 478.55 C457.49,478.88 457.22,479.14 456.72,479.34 C457.21,479.14 457.49,478.87 457.62,478.54 C457.62,478.54 457.62,478.55 457.62,478.55 ZM 821.05 475.64 C821.02,475.77 821.01,475.93 821.00,476.11 C821.00,476.04 821.00,475.98 821.00,475.91 C821.00,475.85 821.02,475.76 821.05,475.64 ZM 317.01 404.76 C317.51,404.84 317.86,404.92 318.02,405.01 C317.85,404.92 317.51,404.84 317.01,404.76 Z" fill="rgb(5,31,93)"/>
<path d="M 496.94 303.75 C497.41,301.69 497.53,300.00 497.22,300.00 C495.87,300.00 493.00,303.47 493.00,305.11 C493.00,307.71 490.86,312.01 489.59,311.97 C488.99,311.95 487.62,311.27 486.55,310.46 C485.48,309.65 483.82,309.24 482.85,309.55 C481.89,309.85 479.84,309.47 478.30,308.69 C474.35,306.70 467.99,305.85 457.07,305.87 C446.02,305.89 443.98,304.66 444.67,298.40 C445.11,294.45 448.52,287.00 449.90,287.00 C450.37,287.00 451.31,285.67 451.98,284.05 C452.65,282.43 457.20,276.94 462.10,271.84 C466.99,266.75 471.00,262.34 470.99,262.04 C470.99,261.99 470.91,262.03 470.76,262.13 C487.11,247.29 504.89,232.00 505.90,232.00 C506.47,232.00 507.40,231.12 507.97,230.05 C508.55,228.98 513.63,224.25 519.26,219.54 C524.89,214.84 531.08,209.42 533.00,207.50 C534.92,205.58 536.98,204.01 537.57,204.01 C538.16,204.00 539.57,202.99 540.71,201.75 C541.85,200.51 544.92,197.70 547.54,195.50 C550.16,193.30 556.16,188.04 560.88,183.82 C565.61,179.60 569.67,176.34 569.92,176.58 C570.16,176.82 568.92,178.21 567.16,179.67 C565.40,181.13 562.98,183.93 561.77,185.91 C560.56,187.88 557.76,191.45 555.54,193.84 C553.32,196.22 551.14,198.81 550.70,199.59 C549.40,201.88 553.09,201.30 557.09,198.59 C560.08,196.55 564.44,195.62 585.07,192.61 C631.81,185.78 666.00,182.16 666.00,184.02 C666.00,185.24 664.34,186.09 659.71,186.82 C660.25,186.39 657.33,186.10 652.00,186.07 C641.83,186.02 635.00,186.80 635.00,188.01 C635.00,188.41 638.84,188.47 643.50,188.33 C642.42,188.40 641.30,188.47 640.13,188.54 C601.82,190.91 570.49,195.85 558.51,201.39 C555.76,202.67 552.15,205.35 550.51,207.36 C548.86,209.36 546.72,211.00 545.76,211.00 C544.79,211.00 544.00,211.68 544.00,212.50 C544.00,213.32 543.52,214.00 542.93,214.00 C542.35,214.00 540.43,215.06 538.68,216.36 C536.93,217.65 531.45,220.83 526.50,223.43 C521.55,226.02 515.70,229.72 513.50,231.64 L 509.50 235.14 L 513.17 234.78 L 516.84 234.42 L 513.92 237.75 C511.53,240.46 511.00,241.97 511.00,246.03 C511.00,251.10 511.42,251.78 517.67,250.44 C514.11,251.40 512.12,252.39 512.55,253.08 C513.29,254.28 514.87,254.24 518.60,252.79 C516.75,253.54 514.65,254.33 512.50,255.06 C510.30,255.80 508.13,256.71 507.67,257.09 C506.87,257.73 505.41,263.96 498.97,294.14 C496.78,304.39 495.59,312.63 494.28,327.71 C495.34,315.29 496.30,306.53 496.94,303.75 ZM 392.00 440.09 C392.00,440.67 398.64,441.00 404.74,441.00 C404.30,441.00 403.84,441.00 403.37,441.00 C393.94,441.00 393.89,441.01 392.89,443.75 C391.83,446.66 384.04,453.24 380.25,454.43 C379.01,454.82 378.00,455.54 378.00,456.04 C378.00,456.53 377.33,456.68 376.50,456.36 C374.11,455.44 374.68,448.86 378.12,437.66 C379.83,432.07 381.63,427.07 382.12,426.55 C382.60,426.03 383.00,425.02 383.00,424.30 C383.00,423.59 384.31,420.19 385.92,416.75 C387.52,413.31 390.05,406.90 391.53,402.50 C393.01,398.10 394.62,394.07 395.11,393.55 C396.31,392.26 396.23,391.00 394.95,391.00 C394.37,391.00 392.76,393.73 390.63,398.25 C393.24,392.63 395.63,388.00 396.04,388.00 C396.44,388.00 397.00,387.10 397.29,386.00 C397.67,384.55 398.65,384.00 400.85,384.00 C404.53,384.00 405.55,385.30 403.33,387.14 C401.13,388.96 399.00,394.25 399.00,397.90 C399.00,401.32 402.92,405.00 406.58,405.00 C408.11,405.00 409.33,405.92 410.21,407.75 C412.29,412.10 414.45,411.27 414.76,406.00 C415.12,399.98 415.89,396.79 416.91,397.18 C417.37,397.36 426.34,414.47 436.84,435.21 C439.12,439.71 441.33,444.07 443.41,448.15 C443.29,448.18 443.16,448.21 443.01,448.25 C441.97,448.54 441.61,449.72 441.83,452.20 C442.29,457.55 439.68,457.94 435.09,453.21 C433.05,451.11 429.79,448.18 427.84,446.69 C424.89,444.44 424.00,442.83 422.63,437.28 C421.69,433.47 419.96,429.49 418.62,428.04 C417.33,426.64 414.62,422.01 412.60,417.75 C410.48,413.29 408.30,410.00 407.46,410.00 C405.63,410.00 405.58,411.85 407.36,413.92 C408.02,414.69 409.76,418.96 411.51,423.73 L 411.51 423.73 C411.70,424.30 411.91,424.92 412.13,425.58 C410.38,420.73 408.56,416.17 407.89,415.37 C406.19,413.32 404.29,413.71 403.65,416.25 C403.34,417.49 400.59,423.15 397.54,428.84 C394.49,434.52 392.00,439.58 392.00,440.09 ZM 509.88 209.71 C509.21,210.24 507.80,211.45 505.90,213.13 C508.71,210.55 511.35,208.12 513.62,206.01 C516.43,203.39 519.36,200.85 520.12,200.37 C520.88,199.89 522.40,198.39 523.50,197.04 C524.96,195.25 524.34,195.52 521.21,198.04 C518.85,199.94 515.25,202.77 513.21,204.32 C508.52,207.89 499.40,215.73 496.14,219.00 C494.57,220.57 494.16,220.76 495.03,219.50 C495.84,218.34 495.11,218.70 493.31,220.35 C491.59,221.91 489.88,223.10 489.50,222.99 C489.13,222.88 487.82,223.67 486.59,224.74 C483.89,227.08 480.89,226.29 478.47,222.59 C476.59,219.73 477.26,214.22 479.59,213.33 C480.37,213.03 481.00,212.33 481.00,211.77 C481.00,211.21 483.14,208.64 485.75,206.06 C494.76,197.16 495.48,195.59 487.14,203.03 C482.55,207.14 474.67,214.04 469.64,218.36 C465.76,221.70 462.28,224.75 460.78,226.13 C462.03,224.92 466.77,220.72 472.00,216.19 C477.77,211.18 488.35,201.72 495.50,195.17 L 508.50 183.24 L 508.81 186.59 C509.22,191.10 513.72,194.44 518.08,193.48 C519.76,193.11 521.36,192.23 521.63,191.52 C521.90,190.81 523.48,189.95 525.13,189.62 C526.78,189.29 529.49,187.67 531.14,186.01 C532.80,184.36 534.43,183.00 534.77,183.00 C535.11,183.00 537.11,181.81 539.21,180.35 C541.32,178.89 543.25,177.92 543.52,178.19 C544.01,178.68 516.44,204.51 509.88,209.71 ZM 838.15 477.88 C837.24,478.35 833.53,478.99 829.90,479.31 C828.86,479.40 827.93,479.46 827.10,479.49 C827.92,479.46 828.86,479.40 829.90,479.31 C834.23,478.92 837.07,478.13 838.17,476.99 C839.74,475.36 839.58,475.29 835.48,475.76 C833.08,476.03 829.91,475.94 828.43,475.57 C825.98,474.96 825.79,474.57 826.26,471.07 C826.80,467.09 831.45,455.61 833.58,453.00 C835.06,451.19 841.96,437.63 845.27,430.00 C851.33,416.08 852.51,413.47 852.99,413.00 C853.87,412.13 860.00,399.01 860.00,397.98 C860.00,396.51 859.16,396.71 858.16,398.07 C863.35,387.65 866.20,383.86 867.67,385.34 C867.89,385.55 865.83,390.18 863.10,395.61 C851.13,419.49 848.53,425.13 844.76,435.50 C840.92,446.06 839.14,452.53 839.04,456.23 C839.00,457.87 839.20,457.87 842.50,456.30 C844.42,455.38 846.00,454.27 846.00,453.82 C846.00,453.37 848.02,452.06 850.49,450.90 C855.27,448.66 856.62,448.71 878.58,452.07 C881.93,452.58 886.66,453.00 889.11,453.00 C894.82,453.00 897.05,454.64 901.01,461.73 C902.78,464.90 905.31,468.95 906.64,470.72 C910.76,476.22 921.42,477.54 922.25,472.66 C922.60,470.62 922.69,470.65 923.96,473.22 C925.92,477.20 924.04,479.00 917.91,479.00 C910.38,479.00 906.99,476.83 903.08,469.51 C901.22,466.02 899.67,462.79 899.65,462.33 C899.61,461.46 898.64,460.11 895.75,456.93 C894.18,455.20 892.36,454.98 878.25,454.77 C856.40,454.44 853.19,454.60 851.45,456.04 C850.62,456.73 847.65,461.74 844.86,467.17 C842.08,472.60 839.05,477.42 838.15,477.88 ZM 389.74 264.27 C389.94,263.67 389.30,262.91 388.31,262.59 C384.22,261.28 375.80,251.58 367.50,238.62 C366.40,236.91 363.92,233.06 362.00,230.09 C360.08,227.11 358.46,224.41 358.42,224.09 C358.37,223.76 357.97,222.19 357.52,220.58 C357.07,218.97 356.65,216.50 356.60,215.08 C356.55,213.78 356.10,212.96 355.46,212.67 C355.69,212.64 355.91,212.63 356.13,212.64 C359.68,212.86 379.05,214.80 390.86,216.13 C400.84,217.26 401.15,217.36 398.51,218.75 C396.08,220.02 395.06,220.00 389.92,218.56 C385.73,217.38 382.59,217.13 378.79,217.66 C375.88,218.07 373.10,218.29 372.60,218.15 C372.11,218.01 371.11,218.13 370.38,218.41 C369.29,218.83 369.30,219.59 370.43,222.81 C371.89,226.95 371.55,228.26 368.75,229.29 C366.40,230.16 366.54,231.22 369.41,234.30 C370.73,235.73 372.31,238.40 372.91,240.24 C373.63,242.41 374.65,243.57 375.86,243.57 C376.88,243.57 377.66,243.11 377.60,242.54 C377.55,241.97 377.95,241.27 378.50,241.00 C379.05,240.73 379.65,241.85 379.83,243.50 C380.01,245.15 381.20,247.62 382.48,249.00 C383.76,250.38 384.97,252.40 385.17,253.50 C385.49,255.21 386.19,255.45 390.02,255.16 C392.81,254.94 395.36,254.02 396.77,252.71 C398.02,251.56 399.75,250.51 400.61,250.38 C401.46,250.26 402.69,249.44 403.33,248.56 C403.98,247.69 405.54,246.78 406.81,246.54 C408.07,246.29 411.22,244.33 413.81,242.18 C416.39,240.02 421.41,236.38 424.96,234.10 C431.01,230.20 435.91,226.00 434.42,226.00 C434.05,226.00 434.30,225.34 434.96,224.54 C435.63,223.74 435.88,222.62 435.53,222.04 C435.13,221.41 436.07,221.00 437.94,221.00 C439.62,221.00 441.00,221.35 441.00,221.78 C441.00,222.93 429.45,234.00 422.00,239.98 C418.42,242.85 411.38,248.50 406.34,252.54 C401.31,256.58 396.89,260.37 396.53,260.96 C396.16,261.55 394.11,262.92 391.97,264.01 C389.83,265.11 387.95,265.97 387.79,265.94 C387.69,265.92 387.00,265.51 386.01,264.88 C387.92,265.88 389.25,265.75 389.74,264.27 ZM 230.85 384.06 C231.76,383.98 232.84,383.99 234.10,384.00 C234.47,384.00 234.86,384.00 235.26,384.00 C235.87,384.00 236.45,383.99 236.99,383.99 C239.61,383.96 241.37,383.93 242.56,384.75 C245.03,386.45 245.02,391.76 245.00,408.08 C245.00,409.70 244.99,411.44 244.99,413.29 C244.99,421.16 244.86,429.08 244.65,435.33 C244.44,433.22 243.91,432.00 243.08,432.00 C242.59,432.00 241.21,433.68 240.00,435.73 L 237.79 439.46 L 235.50 436.79 C232.76,433.60 231.54,426.80 229.89,405.38 C228.87,392.12 228.92,389.87 230.29,387.13 C231.12,385.45 231.28,384.42 230.85,384.06 ZM 864.00 519.13 C864.00,518.64 842.67,518.06 816.60,517.83 C777.67,517.48 768.89,517.15 767.49,515.99 C766.18,514.90 765.89,513.48 766.25,509.79 C766.43,507.86 766.41,506.19 766.23,505.44 C767.46,505.17 769.52,505.08 772.09,505.20 C777.47,505.45 778.45,505.77 778.22,507.20 C778.06,508.13 778.74,509.32 779.72,509.83 C781.75,510.91 801.57,513.44 820.00,514.98 C829.31,515.76 904.92,517.91 925.75,517.99 C928.53,518.00 928.73,520.54 926.07,521.96 C925.65,522.19 925.21,522.38 924.80,522.54 C925.20,522.31 925.59,521.99 925.89,521.63 C926.81,520.53 926.42,520.13 923.94,519.64 C920.43,518.94 877.00,518.66 876.33,519.34 C876.09,519.58 883.90,520.10 893.69,520.49 C900.42,520.76 907.47,521.16 912.21,521.52 C900.55,521.07 871.64,520.54 839.50,520.22 C829.56,520.12 820.04,520.01 811.32,519.88 C836.89,519.93 864.00,519.68 864.00,519.13 ZM 535.20 329.89 C534.97,325.19 534.77,319.23 534.62,312.50 C534.30,297.65 533.75,280.06 533.40,273.40 C532.80,261.94 533.52,256.99 535.79,257.00 C536.18,257.01 536.58,274.36 536.67,295.56 C536.80,324.95 537.14,334.47 538.11,335.63 C541.32,339.50 569.40,332.19 581.34,324.37 C586.52,320.97 587.05,322.00 582.14,325.89 C580.08,327.52 577.00,329.46 573.53,331.40 C573.83,331.17 574.00,330.98 574.00,330.86 C574.00,330.12 569.63,331.67 564.78,334.11 C560.13,336.46 541.25,339.46 537.79,338.41 C536.36,337.98 536.02,336.33 535.74,328.69 L 535.42 319.50 L 535.21 329.55 C535.21,329.66 535.20,329.78 535.20,329.89 ZM 372.16 189.55 C379.06,190.91 381.93,191.78 379.50,191.78 C377.30,191.77 374.15,191.42 372.50,191.00 C370.85,190.58 367.70,190.18 365.50,190.10 C358.99,189.89 356.71,188.18 356.68,183.50 C356.67,181.30 357.17,177.70 357.80,175.50 C358.43,173.30 359.11,170.60 359.32,169.50 C359.53,168.40 359.99,166.82 360.34,166.00 C360.69,165.18 361.17,163.38 361.41,162.00 C361.65,160.62 361.92,159.50 362.00,159.50 C362.09,159.50 362.30,158.70 362.49,157.73 C363.06,154.78 368.58,143.66 370.80,141.00 L 372.89 138.50 L 371.66 142.13 C370.99,144.13 369.95,146.38 369.35,147.13 C367.46,149.52 358.98,178.73 359.02,182.75 C359.05,186.35 360.96,187.35 372.16,189.55 ZM 487.00 255.89 C487.00,257.86 489.95,257.07 492.19,254.50 C493.53,252.96 495.42,252.00 497.12,252.00 C498.80,252.00 500.47,251.17 501.37,249.88 C502.18,248.72 504.21,246.94 505.88,245.93 C508.61,244.27 508.89,243.62 508.71,239.55 C508.59,237.05 508.34,235.01 508.14,235.01 C507.80,235.00 502.31,240.10 491.32,250.64 C488.94,252.92 487.00,255.28 487.00,255.89 ZM 806.58 400.09 C803.82,397.04 806.71,389.00 810.56,389.00 C813.99,389.00 814.15,391.40 811.12,396.96 C808.40,401.91 808.30,401.99 806.58,400.09 ZM 442.00 203.16 C442.00,204.10 437.66,204.32 436.77,203.43 C436.45,203.12 430.19,201.36 422.85,199.52 C415.51,197.68 410.17,196.14 411.00,196.11 C411.83,196.08 414.30,196.47 416.50,196.99 C418.70,197.51 422.75,198.18 425.50,198.49 C428.25,198.80 431.85,199.21 433.50,199.40 C437.08,199.81 442.00,201.98 442.00,203.16 ZM 888.73 432.29 C890.12,434.93 891.00,437.33 890.70,437.64 C889.80,438.53 885.38,430.87 880.42,419.80 C877.87,414.14 875.27,409.13 874.64,408.67 C873.84,408.09 873.90,407.95 874.83,408.20 C876.00,408.51 878.60,413.01 888.73,432.29 ZM 512.90 229.09 C515.83,226.54 513.79,225.33 510.54,227.70 C509.18,228.69 508.05,229.84 508.03,230.25 C507.97,231.65 510.69,231.01 512.90,229.09 ZM 443.58 448.49 C445.54,452.34 447.37,455.94 449.02,459.17 C446.26,454.08 443.73,450.00 443.00,449.99 C441.67,449.97 441.67,449.85 443.00,448.91 C443.24,448.74 443.43,448.60 443.58,448.49 ZM 850.67 413.46 C844.43,426.50 835.54,444.85 830.17,455.71 C831.85,452.19 833.67,448.40 835.58,444.48 C840.58,434.20 846.22,422.61 850.67,413.46 ZM 457.65 478.47 C457.85,477.64 456.23,473.55 454.40,469.65 C455.95,472.66 456.93,474.51 457.13,474.83 C457.78,475.88 458.03,477.47 457.69,478.37 C457.68,478.40 457.66,478.43 457.65,478.47 ZM 766.09 518.80 C765.58,518.75 765.29,518.71 765.23,518.68 C764.02,517.90 763.76,509.95 764.65,506.85 C764.40,508.13 764.32,510.11 764.38,512.95 C764.47,517.11 764.67,518.18 766.09,518.80 ZM 467.23 265.35 C466.20,266.36 465.00,267.53 463.74,268.81 C460.73,271.85 457.84,274.65 456.34,276.00 C459.28,272.91 462.62,269.60 465.64,266.82 C466.17,266.33 466.70,265.84 467.23,265.35 ZM 372.82 251.33 C369.14,246.72 366.00,242.39 366.00,241.52 C366.00,241.85 369.06,246.25 372.82,251.33 ZM 244.13 445.32 C244.08,445.96 244.01,446.48 243.95,446.86 C243.16,451.72 241.70,456.26 239.64,460.34 C239.65,460.29 239.66,460.24 239.67,460.20 C241.83,455.79 243.34,450.80 244.13,445.32 ZM 448.36 285.40 C445.63,289.53 442.72,294.51 440.41,299.00 L 440.41 299.00 C440.39,299.00 440.37,299.01 440.34,299.02 C442.68,294.40 445.63,289.31 448.36,285.40 ZM 470.05 245.28 C472.70,242.94 474.79,241.12 476.09,240.00 C476.98,239.24 478.18,238.18 479.61,236.92 C475.88,240.26 473.02,242.79 472.00,243.62 C471.62,243.93 470.96,244.49 470.05,245.28 ZM 225.69 395.28 C225.56,399.17 225.49,404.70 225.41,412.61 C225.49,404.98 225.52,399.38 225.69,395.28 ZM 542.38 341.95 C539.93,342.01 537.93,341.77 536.86,341.23 C537.98,341.73 539.99,341.97 542.38,341.95 ZM 459.96 226.93 C459.62,227.32 458.32,228.29 457.00,229.13 C455.85,229.87 451.05,233.94 445.62,238.78 C451.05,233.94 455.85,229.86 457.00,229.12 C458.05,228.45 459.23,227.57 459.96,226.93 ZM 562.01 337.11 C559.76,338.09 557.62,338.93 555.74,339.56 C557.65,338.89 559.83,338.03 562.01,337.11 ZM 384.18 263.71 C384.03,263.61 383.88,263.51 383.73,263.41 C383.30,263.14 382.69,262.58 381.93,261.83 C382.72,262.56 383.48,263.19 384.18,263.71 ZM 415.21 439.86 C415.68,439.40 415.99,438.76 416.00,438.17 C416.00,438.18 416.00,438.18 416.00,438.19 C416.00,438.91 415.80,439.46 415.21,439.86 ZM 456.76 479.33 C455.62,479.86 453.28,479.99 448.28,479.97 C453.10,479.99 455.54,479.84 456.72,479.34 C456.74,479.34 456.75,479.33 456.76,479.33 ZM 407.79 300.74 L 408.15 300.43 C409.18,299.50 410.40,298.41 411.76,297.19 C412.53,296.50 413.35,295.77 414.20,295.01 L 414.20 295.01 L 415.39 293.95 C412.26,296.76 409.68,299.07 407.53,300.98 ZM 415.75 436.76 C415.55,435.93 415.23,434.83 414.83,433.55 C414.86,433.63 414.89,433.71 414.93,433.79 C415.28,434.96 415.57,435.98 415.75,436.76 ZM 922.73 522.77 C923.10,522.81 923.38,522.85 923.55,522.87 C923.46,522.88 923.38,522.88 923.32,522.87 C923.22,522.85 923.02,522.82 922.73,522.77 ZM 228.67 384.60 C228.48,384.71 228.29,384.83 228.08,384.97 C228.14,384.92 228.21,384.87 228.27,384.83 C228.40,384.74 228.53,384.66 228.67,384.60 ZM 387.38 405.57 C387.18,406.04 386.98,406.51 386.78,407.00 C386.45,407.79 385.87,409.05 385.23,410.37 C385.87,409.05 386.45,407.79 386.78,407.00 C386.97,406.53 387.17,406.05 387.38,405.57 ZM 405.46 302.81 C404.05,304.05 402.86,305.09 401.83,305.96 C402.84,305.11 404.00,304.10 405.37,302.89 ZM 821.00 476.16 C821.00,476.12 821.00,476.07 821.00,476.03 C821.00,476.02 821.00,476.02 821.00,476.01 Z" fill="rgb(8,86,122)"/>
<path d="M 659.52 186.92 C659.60,186.88 659.66,186.85 659.71,186.82 C664.34,186.09 666.00,185.24 666.00,184.02 C666.00,182.16 631.81,185.78 585.07,192.61 C564.44,195.62 560.08,196.55 557.09,198.59 C553.09,201.30 549.40,201.88 550.70,199.59 C551.14,198.81 553.32,196.22 555.54,193.84 C557.76,191.45 560.56,187.88 561.77,185.91 C562.98,183.93 565.40,181.13 567.16,179.67 C568.92,178.21 570.16,176.82 569.92,176.58 C569.67,176.34 565.61,179.60 560.88,183.82 C557.83,186.56 554.23,189.72 551.37,192.21 C554.25,189.66 557.89,186.37 560.98,183.50 C575.61,169.92 620.34,130.46 623.31,128.53 L 626.12 126.69 L 631.14 131.60 C644.31,144.46 663.17,171.78 666.46,182.75 C667.10,184.90 666.00,186.02 659.52,186.92 ZM 922.54 471.37 C922.44,471.59 922.36,472.02 922.25,472.66 C921.42,477.54 910.76,476.22 906.64,470.72 C905.31,468.95 902.78,464.90 901.01,461.73 C897.05,454.64 894.82,453.00 889.11,453.00 C886.66,453.00 881.93,452.58 878.58,452.07 C856.62,448.71 855.27,448.66 850.49,450.90 C848.02,452.06 846.00,453.37 846.00,453.82 C846.00,454.27 844.42,455.38 842.50,456.30 C839.20,457.87 839.00,457.87 839.04,456.23 C839.14,452.53 840.92,446.06 844.76,435.50 C848.53,425.13 851.13,419.49 863.10,395.61 C865.83,390.18 867.89,385.55 867.67,385.34 C867.47,385.14 867.25,385.04 867.00,385.03 C869.01,383.99 871.40,383.98 875.10,384.19 L 880.50 384.50 L 883.15 390.00 C884.61,393.02 894.71,413.58 905.59,435.68 C914.95,454.70 920.26,465.38 922.54,471.37 ZM 512.03 207.92 C521.01,200.22 543.97,178.64 543.52,178.19 C543.25,177.92 541.32,178.89 539.21,180.35 C537.11,181.81 535.11,183.00 534.77,183.00 C534.43,183.00 532.80,184.36 531.14,186.01 C529.49,187.67 526.78,189.29 525.13,189.62 C523.48,189.95 521.90,190.81 521.63,191.52 C521.36,192.23 519.76,193.11 518.08,193.48 C513.72,194.44 509.22,191.10 508.81,186.59 L 508.50 183.24 L 495.50 195.17 C492.70,197.73 489.38,200.75 486.02,203.76 C495.06,195.53 504.75,186.50 511.50,179.94 C517.00,174.59 526.90,165.58 533.50,159.91 C540.10,154.23 550.22,145.29 556.00,140.02 C561.78,134.76 570.32,127.09 574.99,122.98 C579.66,118.86 588.89,110.60 595.49,104.61 C612.24,89.41 614.32,88.00 619.93,88.00 C625.29,88.00 628.40,89.82 629.73,93.73 C631.63,99.31 629.77,102.01 614.26,116.19 C606.14,123.61 596.11,132.57 591.96,136.09 C587.82,139.62 577.77,148.57 569.64,156.00 C561.50,163.43 554.43,169.50 553.92,169.50 C553.41,169.50 550.63,171.98 547.74,175.00 C542.58,180.39 520.50,200.70 512.03,207.92 ZM 581.65 326.27 C581.82,326.14 581.98,326.01 582.14,325.89 C587.05,322.00 586.52,320.97 581.34,324.37 C569.40,332.19 541.32,339.50 538.11,335.63 C537.14,334.47 536.80,324.95 536.67,295.56 C536.58,274.36 536.18,257.01 535.79,257.00 C535.04,257.00 534.46,257.53 534.04,258.66 C534.19,257.71 534.39,257.21 534.64,256.96 C536.57,255.03 540.92,258.16 549.50,267.64 C553.90,272.50 565.75,284.91 575.83,295.21 C588.16,307.82 594.05,314.53 593.82,315.72 C593.42,317.77 588.34,321.92 581.65,326.27 ZM 372.16 189.55 C360.96,187.35 359.05,186.35 359.02,182.75 C358.98,178.73 367.46,149.52 369.35,147.13 C369.95,146.38 370.99,144.13 371.66,142.13 L 372.37 140.03 C375.02,141.91 381.54,147.92 390.70,156.97 C409.85,175.89 432.61,196.11 438.25,199.23 C439.97,200.18 442.07,201.64 442.91,202.48 C444.27,203.84 444.06,204.00 440.88,204.00 C440.52,204.00 440.16,203.99 439.82,203.98 C440.97,203.90 442.00,203.62 442.00,203.16 C442.00,201.98 437.08,199.81 433.50,199.40 C431.85,199.21 428.25,198.80 425.50,198.49 C422.75,198.18 418.70,197.51 416.50,196.99 C414.30,196.47 411.83,196.08 411.00,196.11 C410.17,196.14 415.51,197.68 422.85,199.52 C425.05,200.07 427.16,200.62 429.03,201.12 C421.73,199.35 410.27,196.97 399.00,194.95 C395.30,194.29 386.61,192.98 377.50,191.70 C378.21,191.75 378.89,191.77 379.50,191.78 C381.93,191.78 379.06,190.91 372.16,189.55 ZM 440.20 221.26 C439.64,221.10 438.84,221.00 437.94,221.00 C436.07,221.00 435.13,221.41 435.53,222.04 C435.88,222.62 435.63,223.74 434.96,224.54 C434.30,225.34 434.05,226.00 434.42,226.00 C435.91,226.00 431.01,230.20 424.96,234.10 C421.41,236.38 416.39,240.02 413.81,242.18 C411.22,244.33 408.07,246.29 406.81,246.54 C405.54,246.78 403.98,247.69 403.33,248.56 C402.69,249.44 401.46,250.26 400.61,250.38 C399.75,250.51 398.02,251.56 396.77,252.71 C395.36,254.02 392.81,254.94 390.02,255.16 C386.19,255.45 385.49,255.21 385.17,253.50 C384.97,252.40 383.76,250.38 382.48,249.00 C381.20,247.62 380.01,245.15 379.83,243.50 C379.65,241.85 379.05,240.73 378.50,241.00 C377.95,241.27 377.55,241.97 377.60,242.54 C377.66,243.11 376.88,243.57 375.86,243.57 C374.65,243.57 373.63,242.41 372.91,240.24 C372.31,238.40 370.73,235.73 369.41,234.30 C366.54,231.22 366.40,230.16 368.75,229.29 C371.55,228.26 371.89,226.95 370.43,222.81 C369.30,219.59 369.29,218.83 370.38,218.41 C371.11,218.13 372.11,218.01 372.60,218.15 C373.10,218.29 375.88,218.07 378.79,217.66 C382.59,217.13 385.73,217.38 389.92,218.56 C395.06,220.00 396.08,220.02 398.51,218.75 C401.10,217.39 400.85,217.26 391.46,216.20 C399.17,216.92 407.96,217.70 417.51,218.51 C431.69,219.71 438.13,220.47 440.20,221.26 ZM 928.45 507.64 C929.19,510.59 928.74,515.54 927.74,518.83 C927.43,518.33 926.76,518.00 925.75,517.99 C904.92,517.91 829.31,515.76 820.00,514.98 C801.57,513.44 781.75,510.91 779.72,509.83 C778.74,509.32 778.06,508.13 778.22,507.20 C778.40,506.09 777.85,505.65 775.06,505.39 C786.21,505.10 807.84,505.00 846.50,505.00 L 927.78 505.00 ZM 888.73 432.29 C878.60,413.01 876.00,408.51 874.83,408.20 C873.90,407.95 873.84,408.09 874.64,408.67 C875.27,409.13 877.87,414.14 880.42,419.80 C881.27,421.72 882.12,423.53 882.93,425.21 C879.44,418.18 875.58,411.00 875.00,411.00 C873.82,411.00 871.06,415.11 866.45,423.75 C864.32,427.74 862.22,431.00 861.79,431.00 C861.36,431.00 861.00,431.64 861.00,432.42 C861.00,433.20 860.58,433.98 860.07,434.17 C859.56,434.35 858.82,435.81 858.43,437.41 L 857.70 440.32 L 872.95 439.73 C881.33,439.41 888.44,438.89 888.76,438.58 C889.07,438.26 886.86,433.28 884.12,427.64 C887.44,434.27 890.04,438.30 890.70,437.64 C891.00,437.33 890.12,434.93 888.73,432.29 ZM 402.27 384.08 C402.91,384.09 403.64,384.12 404.48,384.16 C408.93,384.36 411.57,384.97 412.53,386.03 C413.31,386.90 415.93,392.12 418.34,397.63 C419.97,401.36 427.04,415.70 434.74,431.06 C425.17,412.23 417.34,397.34 416.91,397.18 C415.89,396.79 415.12,399.98 414.76,406.00 C414.45,411.27 412.29,412.10 410.21,407.75 C409.33,405.92 408.11,405.00 406.58,405.00 C402.92,405.00 399.00,401.32 399.00,397.90 C399.00,394.25 401.13,388.96 403.33,387.14 C405.24,385.56 404.76,384.38 402.27,384.08 ZM 487.00 255.89 C487.00,255.28 488.94,252.92 491.32,250.64 C502.31,240.10 507.80,235.00 508.14,235.01 C508.34,235.01 508.59,237.05 508.71,239.55 C508.89,243.62 508.61,244.27 505.88,245.93 C504.21,246.94 502.18,248.72 501.37,249.88 C500.47,251.17 498.80,252.00 497.12,252.00 C495.42,252.00 493.53,252.96 492.19,254.50 C489.95,257.07 487.00,257.86 487.00,255.89 ZM 511.60 241.28 C512.04,240.10 512.76,239.06 513.92,237.75 L 516.84 234.42 L 513.17 234.78 L 509.50 235.14 L 513.50 231.64 C515.70,229.72 521.55,226.02 526.50,223.43 C530.30,221.44 534.41,219.10 536.91,217.54 C534.53,219.14 532.04,220.97 530.61,222.24 C529.53,223.19 527.94,224.26 527.07,224.60 C526.21,224.94 522.24,228.74 518.25,233.04 C514.17,237.44 512.38,239.43 511.60,241.28 ZM 533.84 284.43 C534.12,292.56 534.41,303.08 534.62,312.50 C534.76,319.02 534.96,324.82 535.18,329.45 C534.91,324.33 534.66,317.79 534.47,310.50 C534.19,299.86 533.98,291.31 533.84,284.43 ZM 371.88 139.70 L 370.80 141.00 C369.70,142.32 367.79,145.71 366.07,149.16 C368.08,144.89 370.32,140.44 371.09,139.45 C371.18,139.35 371.44,139.43 371.88,139.70 ZM 354.04 212.78 C353.57,213.04 353.08,213.51 352.64,214.21 C351.78,215.57 352.62,218.03 356.79,226.27 C354.22,221.27 352.00,216.50 352.00,215.57 C352.00,214.13 352.63,213.21 354.04,212.78 ZM 359.10 188.77 C358.42,188.56 357.93,188.35 357.71,188.18 C356.30,187.00 356.27,181.45 357.60,176.26 C357.07,178.46 356.67,181.54 356.68,183.50 C356.69,186.08 357.39,187.75 359.10,188.77 ZM 361.15 212.92 C361.99,213.06 363.06,213.21 364.34,213.37 C360.38,212.99 357.34,212.72 356.13,212.64 C355.91,212.63 355.69,212.64 355.46,212.67 C355.35,212.61 355.24,212.58 355.12,212.56 C356.56,212.38 358.54,212.51 361.15,212.92 ZM 923.39 478.20 C922.60,479.02 920.96,479.01 918.69,479.00 C918.44,479.00 918.18,479.00 917.91,479.00 C920.66,479.00 922.55,478.64 923.63,477.88 C923.56,478.00 923.48,478.11 923.39,478.20 ZM 372.49 191.00 C370.31,190.70 368.15,190.40 366.08,190.13 C368.22,190.24 370.98,190.61 372.49,191.00 ZM 863.85 387.87 C862.38,390.00 860.51,393.36 858.16,398.07 L 858.14 398.11 C860.53,393.23 862.24,389.99 863.85,387.87 ZM 538.57 216.44 C538.61,216.41 538.65,216.38 538.68,216.36 C540.43,215.06 542.35,214.00 542.93,214.00 C543.52,214.00 544.00,213.32 544.00,212.50 C544.00,213.32 543.56,214.00 543.03,214.00 C542.57,214.00 540.74,215.04 538.57,216.44 ZM 764.82 506.18 C764.75,506.38 764.70,506.60 764.65,506.85 C763.76,509.94 764.02,517.84 765.21,518.67 C765.21,518.67 765.21,518.66 765.20,518.66 C763.97,517.87 763.67,509.32 764.77,506.25 C764.78,506.23 764.79,506.21 764.82,506.18 ZM 433.84 229.50 C437.77,225.76 440.82,222.57 440.99,221.84 C441.00,221.86 441.00,221.88 441.00,221.90 C441.00,222.44 437.86,225.70 433.84,229.50 ZM 397.29 386.00 C397.00,387.10 396.44,388.00 396.04,388.00 C396.44,388.00 397.01,387.07 397.31,385.93 C397.57,384.94 397.88,384.43 399.00,384.21 C398.05,384.48 397.54,385.05 397.29,386.00 ZM 456.68 474.01 C456.95,474.51 457.17,474.89 457.31,475.12 C457.86,476.01 458.03,477.47 457.69,478.37 C458.03,477.47 457.78,475.88 457.13,474.83 C457.06,474.72 456.91,474.45 456.68,474.01 ZM 318.16 423.35 C317.01,424.64 315.92,425.58 314.48,426.26 C315.92,425.58 317.01,424.64 318.15,423.35 C320.01,421.26 321.05,417.93 321.26,414.65 C321.05,417.94 320.02,421.27 318.16,423.35 ZM 362.71 156.90 C362.61,157.22 362.53,157.50 362.49,157.73 C362.31,158.70 362.09,159.50 362.00,159.50 C362.09,159.50 362.32,158.63 362.51,157.57 C362.54,157.41 362.61,157.19 362.71,156.90 ZM 314.48 426.26 C311.45,427.70 306.83,428.00 296.72,428.00 C306.84,428.00 311.45,427.70 314.48,426.26 ZM 925.95 522.03 C925.56,522.23 925.15,522.42 924.76,522.56 C924.77,522.55 924.79,522.54 924.80,522.54 C925.18,522.39 925.59,522.21 925.98,522.01 C925.97,522.02 925.96,522.02 925.95,522.03 ZM 408.15 300.43 C408.36,300.23 408.59,300.03 408.82,299.83 C409.69,299.04 410.69,298.15 411.76,297.19 C412.15,296.84 412.55,296.48 412.97,296.11 L 414.19 295.01 ZM 923.56 522.87 C923.46,522.88 923.38,522.88 923.32,522.87 C923.38,522.88 923.46,522.88 923.55,522.87 Z" fill="rgb(27,129,180)"/>
<path d="M 511.60 241.28 C512.38,239.43 514.17,237.44 518.25,233.04 C522.24,228.74 526.21,224.94 527.07,224.60 C527.94,224.26 529.53,223.19 530.61,222.24 C532.04,220.97 534.53,219.14 536.91,217.54 C537.60,217.10 538.17,216.73 538.57,216.44 C540.74,215.04 542.57,214.00 543.03,214.00 C543.56,214.00 544.00,213.32 544.00,212.50 C544.00,211.68 544.79,211.00 545.76,211.00 C546.72,211.00 548.86,209.36 550.51,207.36 C550.75,207.06 551.03,206.76 551.34,206.44 C550.63,207.88 551.49,208.98 553.92,209.82 C557.84,211.19 566.13,218.49 584.33,236.58 C592.67,244.88 606.36,258.22 614.75,266.24 C623.14,274.25 630.00,281.57 630.00,282.50 C630.00,284.51 618.36,296.82 613.15,300.32 C612.16,300.99 610.95,301.66 609.81,302.22 C609.30,300.40 600.65,291.00 593.41,284.52 C588.51,280.13 583.39,275.26 582.04,273.69 C580.69,272.13 578.74,270.39 577.70,269.84 C576.08,268.97 576.15,269.30 578.16,272.14 C578.62,272.79 579.19,273.50 579.80,274.21 C573.79,268.38 568.16,263.13 558.13,254.02 C545.88,242.89 545.72,242.79 541.80,243.42 C539.62,243.76 535.72,245.12 533.14,246.43 C530.28,247.88 525.31,250.04 520.64,251.94 C525.78,249.71 526.32,248.58 521.75,249.49 C520.23,249.80 518.86,250.11 517.67,250.44 C511.42,251.78 511.00,251.10 511.00,246.03 C511.00,243.94 511.14,242.53 511.60,241.28 ZM 484.12 196.33 C483.75,196.61 483.38,196.89 483.01,197.16 C486.64,194.38 487.96,193.32 487.82,193.06 C487.73,192.90 487.05,193.07 485.99,193.32 C485.88,193.35 485.77,193.38 485.65,193.40 C484.08,193.78 480.44,195.87 477.56,198.04 C474.68,200.22 471.88,202.00 471.35,202.00 C470.82,202.00 454.12,185.80 434.23,166.00 C414.35,146.20 397.84,130.00 397.54,130.00 C397.33,130.00 397.18,130.04 397.07,130.11 C397.19,129.46 397.46,129.00 397.77,129.00 C398.19,129.00 401.68,125.18 405.52,120.52 C409.36,115.85 413.51,111.75 414.74,111.41 C415.98,111.07 416.74,110.38 416.43,109.89 C416.13,109.40 416.49,109.00 417.24,109.00 C418.90,109.00 436.71,126.32 460.32,150.89 L 477.98 169.28 L 483.24 168.73 C486.13,168.43 495.44,165.89 503.93,163.09 C518.50,158.29 529.00,156.52 529.00,158.87 C529.00,160.38 504.88,180.50 484.12,196.33 ZM 518.36 115.00 C517.79,89.49 516.97,67.70 516.30,60.50 C515.78,54.82 515.51,54.03 514.90,56.32 C514.70,57.04 514.61,58.56 514.62,60.47 C514.58,58.51 514.62,56.83 514.75,55.84 C515.25,52.08 515.35,52.00 519.46,52.00 C524.74,52.00 536.38,55.92 544.37,60.39 C551.19,64.20 565.75,76.61 570.83,82.94 L 574.13 87.05 L 559.34 106.77 C545.25,125.56 528.99,143.56 525.93,143.76 C525.14,143.81 522.89,144.16 520.91,144.53 L 517.33 145.21 L 516.63 110.35 C516.36,96.95 515.94,83.52 515.55,75.16 C515.96,82.79 516.40,94.39 516.67,105.50 C517.05,121.45 517.66,133.38 518.02,132.00 C518.38,130.62 518.53,122.97 518.36,115.00 ZM 567.42 259.66 C556.58,249.90 554.00,247.79 554.00,248.67 C554.00,249.83 567.93,263.45 570.49,264.80 C574.41,266.86 573.24,264.91 567.42,259.66 ZM 602.65 298.68 C600.67,295.25 595.05,289.16 583.40,277.73 C585.19,279.27 589.79,283.83 594.18,288.42 C598.67,293.11 601.37,296.38 602.65,298.68 ZM 560.75 200.45 C565.87,198.47 573.42,196.59 582.83,194.89 C573.61,196.57 566.14,198.44 560.75,200.45 ZM 471.12 205.00 C471.11,205.00 471.11,205.00 471.10,205.00 C470.26,205.00 461.86,197.18 451.98,187.24 C461.82,197.14 470.20,204.94 471.12,205.00 ZM 511.00 255.59 C511.49,255.41 511.99,255.23 512.50,255.06 C513.04,254.87 513.58,254.69 514.11,254.50 C512.88,254.95 511.82,255.33 511.00,255.59 ZM 607.45 303.21 C607.21,303.28 606.99,303.35 606.80,303.39 C605.79,303.62 605.14,303.72 604.69,303.53 C605.14,303.71 605.79,303.61 606.80,303.37 C607.02,303.31 607.24,303.26 607.45,303.21 ZM 506.64 259.71 C506.98,258.50 507.23,257.79 507.43,257.41 C507.20,257.95 506.94,258.69 506.64,259.71 Z" fill="rgb(77,182,34)"/>
<path d="M 0.00 338.00 L 0.00 0.00 L 512.00 0.00 L 1024.00 0.00 L 1024.00 338.00 L 1024.00 676.00 L 512.00 676.00 L 0.00 676.00 L 0.00 338.00 ZM 348.43 550.02 C350.89,549.09 351.00,548.71 351.00,541.11 C351.00,529.50 350.47,530.00 362.61,530.00 L 373.00 530.00 L 373.01 536.75 C373.03,547.68 373.86,551.00 376.57,551.00 C377.83,551.00 380.02,550.56 381.43,550.02 L 384.00 549.05 L 384.00 536.27 C383.99,529.25 383.70,518.40 383.34,512.16 L 382.68 500.81 L 379.62 501.43 C377.94,501.76 376.10,502.50 375.53,503.07 C374.96,503.64 374.34,507.90 374.15,512.55 L 373.79 521.00 L 363.46 521.00 C356.91,521.00 352.86,520.59 352.43,519.88 C352.05,519.27 351.51,514.77 351.23,509.88 L 350.72 501.00 L 347.31 501.00 C341.75,501.00 341.00,504.22 341.00,527.89 C341.00,538.86 341.27,548.55 341.61,549.42 C342.30,551.22 344.72,551.44 348.43,550.02 ZM 437.42 550.39 C438.29,550.06 439.00,548.95 439.00,547.92 C439.00,544.48 421.54,506.50 418.23,502.75 C416.09,500.32 411.75,500.56 409.29,503.25 C408.15,504.49 406.19,507.52 404.93,510.00 C401.41,516.93 389.17,548.40 389.67,549.25 C389.92,549.66 391.85,550.00 393.97,550.00 C397.53,550.00 398.07,549.61 400.93,544.97 L 404.02 539.93 L 414.68 540.22 L 425.34 540.50 L 426.30 543.50 C428.22,549.54 432.59,552.24 437.42,550.39 ZM 453.78 549.44 C455.74,548.07 456.00,547.00 456.00,540.44 L 456.00 533.00 L 458.94 533.00 C461.19,533.00 462.67,533.97 465.19,537.14 C473.86,547.97 477.19,551.00 480.45,551.00 C482.19,551.00 484.39,550.43 485.34,549.74 C486.91,548.59 486.53,547.77 481.03,540.54 C474.72,532.25 474.11,531.00 476.37,531.00 C477.13,531.00 479.55,529.04 481.76,526.64 C488.84,518.96 488.15,509.62 480.10,504.26 C476.94,502.16 475.63,502.00 461.46,502.00 C448.48,502.00 446.12,502.24 445.61,503.58 C445.27,504.45 445.00,515.21 445.00,527.50 C445.00,544.43 445.30,549.96 446.25,550.34 C448.69,551.32 451.59,550.98 453.78,549.44 ZM 502.77 533.75 C502.92,524.54 503.38,517.00 503.79,517.00 C504.20,517.00 505.34,519.29 506.34,522.09 C507.33,524.88 510.47,532.08 513.31,538.09 C520.62,553.53 522.07,553.13 531.01,533.18 C533.62,527.35 536.15,522.45 536.63,522.29 C537.11,522.13 537.50,528.19 537.50,535.75 L 537.50 549.50 L 542.25 549.80 L 547.00 550.11 L 547.00 526.66 C547.00,500.62 547.39,502.00 540.05,502.00 C536.81,502.00 535.90,502.53 533.68,505.75 C530.88,509.81 525.07,522.15 523.04,528.34 C522.35,530.46 521.42,531.81 520.97,531.34 C520.52,530.88 517.59,524.65 514.45,517.50 C511.31,510.35 508.30,503.94 507.75,503.25 C507.16,502.51 504.41,502.00 501.00,502.00 C495.60,502.00 495.17,502.18 494.05,504.89 C493.24,506.83 492.94,513.12 493.13,524.14 C493.28,533.14 493.04,541.74 492.59,543.25 C492.00,545.23 492.24,546.71 493.44,548.55 C494.82,550.66 495.77,551.06 498.81,550.81 L 502.50 550.50 L 502.77 533.75 ZM 560.80 550.36 C562.24,549.97 564.02,547.92 565.58,544.84 L 568.07 539.93 L 578.78 540.22 L 589.50 540.50 L 591.71 545.00 C592.92,547.47 594.07,549.91 594.26,550.42 C594.46,550.94 596.68,550.72 599.38,549.93 C603.34,548.76 604.06,548.18 603.67,546.51 C602.97,543.54 594.24,523.97 588.50,512.50 L 583.50 502.50 L 578.86 502.20 L 574.22 501.90 L 568.70 512.70 C565.67,518.64 561.52,527.55 559.48,532.50 C557.44,537.45 554.67,543.38 553.34,545.67 C551.09,549.53 551.04,549.87 552.70,550.30 C555.46,551.02 558.27,551.04 560.80,550.36 ZM 685.34 547.75 C686.98,545.55 687.20,544.46 686.43,542.25 C685.63,539.97 684.79,539.44 681.52,539.18 C675.19,538.66 672.78,544.01 677.21,548.73 C679.96,551.65 682.68,551.33 685.34,547.75 ZM 305.07 548.96 C306.67,548.11 307.00,546.83 307.00,541.57 C307.00,534.19 307.23,534.00 316.12,534.00 C325.02,534.00 332.31,529.62 334.93,522.68 C336.70,518.02 336.25,510.59 334.03,507.76 C330.51,503.29 326.55,502.21 312.33,501.84 C305.09,501.65 298.95,501.73 298.67,502.00 C298.40,502.27 298.04,512.76 297.86,525.30 C297.59,544.57 297.77,548.25 299.02,549.04 C300.95,550.26 302.69,550.24 305.07,548.96 ZM 661.66 547.46 C668.34,543.54 671.29,536.03 668.64,529.68 C666.78,525.22 664.12,523.50 654.53,520.54 C646.87,518.18 643.00,515.80 643.00,513.45 C643.00,510.65 648.80,510.28 657.45,512.53 L 663.33 514.06 L 666.16 511.34 C670.16,507.52 669.80,505.54 664.75,503.50 C658.15,500.84 649.83,500.41 644.47,502.46 C635.27,505.97 631.66,511.41 633.94,518.32 C635.21,522.18 638.82,525.14 644.50,526.99 C646.70,527.71 650.86,529.40 653.75,530.76 C657.87,532.70 659.00,533.73 659.00,535.56 C659.00,538.32 655.56,541.00 652.03,540.99 C650.64,540.98 647.09,539.86 644.15,538.49 C641.21,537.12 638.21,536.00 637.48,536.00 C635.88,536.00 631.68,542.53 632.22,544.17 C632.78,545.85 646.62,549.77 652.41,549.90 C656.00,549.97 658.49,549.32 661.66,547.46 ZM 725.96 548.07 C726.53,547.00 727.00,545.01 727.00,543.63 C727.00,540.46 724.80,539.73 716.15,540.05 C712.49,540.18 708.31,540.22 706.85,540.14 L 704.20 540.00 L 703.47 521.00 L 702.74 502.00 L 699.49 502.00 C697.71,502.00 695.77,502.57 695.19,503.27 C694.55,504.04 694.02,513.18 693.82,526.73 C693.51,548.26 693.56,548.94 695.50,549.33 C696.60,549.55 703.67,549.79 711.21,549.86 C723.83,549.99 725.01,549.84 725.96,548.07 ZM 743.00 548.00 C745.57,545.43 745.55,541.81 742.95,539.45 C741.06,537.74 740.57,537.71 736.70,539.05 C733.03,540.32 732.46,540.92 732.18,543.82 C732.01,545.64 732.40,547.78 733.05,548.57 C734.82,550.69 740.64,550.36 743.00,548.00 ZM 255.02 521.00 C255.53,520.17 255.92,516.01 255.88,511.74 L 255.81 503.99 L 164.20 504.24 L 72.58 504.50 L 71.98 507.50 C71.65,509.15 71.63,512.97 71.94,516.00 L 72.50 521.50 L 144.00 522.05 C247.96,522.86 253.88,522.80 255.02,521.00 ZM 925.95 522.03 C928.01,520.93 929.55,512.04 928.45,507.64 L 927.78 505.00 L 846.50 505.00 C782.38,505.00 765.12,505.26 764.77,506.25 C763.67,509.32 763.97,517.87 765.20,518.66 C765.92,519.12 799.35,519.82 839.50,520.22 C879.65,520.62 914.75,521.35 917.50,521.84 C920.25,522.33 922.87,522.79 923.32,522.87 C923.76,522.94 924.95,522.56 925.95,522.03 ZM 221.70 478.03 C233.48,472.56 241.64,461.13 243.95,446.86 C244.52,443.36 244.99,428.25 244.99,413.29 C245.00,382.04 245.65,384.00 235.26,384.00 C225.29,384.00 225.72,382.75 225.41,412.61 C225.13,440.60 224.35,447.02 220.45,453.68 C216.86,459.80 212.09,462.00 202.44,462.00 C193.38,462.00 189.34,460.39 184.63,454.88 C179.36,448.72 179.00,446.14 179.00,414.24 C179.00,381.14 179.93,383.99 169.17,384.02 C157.70,384.04 157.78,383.83 158.54,414.25 C159.29,444.35 160.17,451.63 164.06,459.94 C169.01,470.51 178.11,477.24 191.01,479.87 C194.03,480.48 197.40,481.18 198.50,481.43 C203.67,482.60 215.64,480.85 221.70,478.03 ZM 531.11 480.99 C539.45,479.44 548.73,474.37 555.73,467.53 C559.18,464.17 562.00,460.66 562.00,459.74 C562.00,457.96 552.67,451.46 548.69,450.46 C546.83,449.99 545.79,450.59 543.70,453.33 C539.55,458.77 532.03,462.00 523.55,462.00 C514.60,462.00 510.82,460.90 504.26,456.38 C498.02,452.08 493.48,443.82 492.45,434.86 C491.17,423.79 497.10,411.96 506.77,406.28 C511.23,403.66 512.18,403.50 523.50,403.50 C536.15,403.50 539.00,404.35 543.09,409.30 C544.56,411.08 544.89,411.11 547.59,409.69 C549.19,408.85 552.28,406.33 554.45,404.08 L 558.41 400.00 L 554.45 395.94 C552.28,393.71 547.15,390.22 543.05,388.19 C535.89,384.64 535.14,384.49 523.32,384.15 C513.08,383.85 509.91,384.14 504.27,385.85 C492.53,389.43 480.82,399.47 475.03,410.94 C472.29,416.36 472.00,417.84 472.03,426.22 C472.08,437.50 474.01,448.92 476.91,455.09 C479.11,459.76 488.05,469.43 493.50,473.02 C496.70,475.13 508.46,479.87 513.47,481.07 C518.00,482.15 525.06,482.12 531.11,480.99 ZM 143.13 479.62 C145.10,478.72 146.33,470.91 145.41,465.15 L 144.77 461.15 L 128.63 461.64 C119.76,461.90 108.22,461.76 103.00,461.31 L 93.50 460.50 L 93.21 451.75 L 92.92 443.00 L 113.89 443.00 C139.26,443.00 138.21,443.50 137.79,431.64 L 137.50 423.50 L 115.50 423.00 L 93.50 422.50 L 93.50 414.00 L 93.50 405.50 L 114.31 404.81 C125.76,404.43 136.62,403.62 138.46,403.01 C142.33,401.74 142.97,400.08 142.99,391.25 L 143.00 385.00 L 108.61 385.00 C82.00,385.00 74.11,385.28 73.76,386.25 C73.00,388.35 73.99,478.39 74.78,479.18 C76.35,480.75 139.77,481.16 143.13,479.62 ZM 275.35 480.08 C278.02,479.64 280.60,478.66 281.09,477.89 C281.58,477.13 281.88,470.33 281.77,462.80 C281.66,455.26 281.83,448.84 282.15,448.52 C283.41,447.26 292.76,446.80 294.81,447.90 C295.98,448.52 299.61,452.52 302.88,456.77 C306.15,461.02 312.16,468.08 316.24,472.46 L 323.64 480.41 L 330.67 480.81 C335.88,481.11 338.53,480.78 340.91,479.55 C342.68,478.63 343.99,477.49 343.81,477.00 C343.64,476.52 339.89,472.16 335.47,467.31 C326.87,457.86 316.52,445.08 317.13,444.65 C317.33,444.50 320.53,442.93 324.22,441.14 C331.06,437.85 335.76,433.22 339.62,426.00 C342.44,420.73 342.27,405.96 339.33,400.50 C336.39,395.04 331.47,390.54 325.50,387.85 C320.83,385.75 318.60,385.55 291.50,384.90 C275.55,384.51 262.15,384.53 261.71,384.94 C261.28,385.34 261.05,406.69 261.21,432.38 C261.53,483.55 261.20,481.02 267.50,480.93 C269.15,480.90 272.68,480.52 275.35,480.08 ZM 374.26 477.25 C376.57,474.84 378.72,470.68 382.80,460.80 C384.29,457.18 386.69,456.85 409.00,457.21 L 427.50 457.50 L 433.50 468.72 L 439.50 479.95 L 448.28 479.97 C455.50,480.00 457.17,479.71 457.69,478.37 C458.03,477.47 457.86,476.01 457.31,475.12 C454.38,470.41 422.08,406.19 418.34,397.63 C415.93,392.12 413.31,386.90 412.53,386.03 C411.57,384.97 408.93,384.36 404.48,384.16 C398.49,383.89 397.80,384.06 397.31,385.93 C397.01,387.07 396.44,388.00 396.04,388.00 C395.42,388.00 390.33,398.45 386.78,407.00 C386.20,408.38 384.88,411.17 383.83,413.20 C382.78,415.24 381.04,419.47 379.97,422.59 C378.89,425.72 377.62,428.78 377.14,429.39 C376.65,430.00 374.23,435.23 371.74,441.00 C369.26,446.77 364.52,457.32 361.21,464.43 C357.91,471.54 355.43,477.95 355.71,478.68 C356.07,479.62 358.46,480.00 363.92,480.00 C371.02,480.00 371.83,479.78 374.26,477.25 ZM 626.89 478.25 C628.97,476.54 629.01,475.78 629.25,441.00 L 629.50 405.50 L 644.62 405.22 C663.13,404.89 663.10,404.90 663.79,392.99 L 664.26 385.00 L 621.69 385.00 C597.08,385.00 578.88,385.39 578.55,385.91 C578.24,386.42 577.71,390.14 577.37,394.19 C576.49,404.58 576.48,404.58 595.27,404.19 L 610.23 403.88 L 609.49 438.75 C609.09,457.92 609.07,475.05 609.46,476.80 L 610.16 480.00 L 617.47 480.00 C622.96,480.00 625.31,479.56 626.89,478.25 ZM 700.85 478.90 L 704.00 477.80 L 704.00 431.51 C704.00,390.22 703.83,385.15 702.42,384.61 C701.55,384.27 697.52,384.00 693.47,384.00 C687.63,384.00 685.91,384.35 685.17,385.67 C684.29,387.24 684.65,475.89 685.54,478.75 C686.04,480.33 696.45,480.44 700.85,478.90 ZM 781.79 476.58 C783.44,474.70 785.77,470.54 786.97,467.34 C788.17,464.14 791.19,457.24 793.68,452.01 C796.17,446.78 799.78,438.90 801.71,434.50 C803.63,430.10 806.26,424.25 807.55,421.50 C809.72,416.90 819.21,395.92 822.59,388.25 L 824.03 385.00 L 814.67 385.00 C803.72,385.00 804.10,384.73 798.23,396.50 C794.25,404.49 785.91,423.58 785.57,425.49 C785.13,427.98 772.65,452.90 772.03,452.52 C771.02,451.90 761.00,434.11 761.00,432.94 C761.00,431.71 746.09,399.66 741.71,391.50 L 738.50 385.50 L 728.25 385.22 C718.85,384.95 718.00,385.08 718.00,386.78 C718.00,387.79 719.29,389.86 720.87,391.37 C722.44,392.88 725.48,398.03 727.62,402.81 C735.95,421.47 763.29,475.02 765.71,477.44 C767.81,479.54 769.22,480.00 773.53,480.00 C778.27,480.00 779.09,479.66 781.79,476.58 ZM 838.15 477.88 C839.05,477.42 842.08,472.60 844.86,467.17 C847.65,461.74 850.62,456.73 851.45,456.04 C853.19,454.60 856.40,454.44 878.25,454.77 C892.36,454.98 894.18,455.20 895.75,456.93 C898.64,460.11 899.61,461.46 899.65,462.33 C899.67,462.79 901.22,466.02 903.08,469.51 C906.99,476.83 910.38,479.00 917.91,479.00 C927.19,479.00 927.56,480.32 905.59,435.68 C894.71,413.58 884.61,393.02 883.15,390.00 L 880.50 384.50 L 875.10 384.19 C865.69,383.66 864.74,384.51 857.02,400.40 C853.25,408.15 843.60,427.99 835.58,444.48 C827.56,460.96 821.00,475.16 821.00,476.03 C821.00,479.15 823.08,479.92 829.90,479.31 C833.53,478.99 837.24,478.35 838.15,477.88 ZM 493.42 338.25 C495.13,316.02 496.32,306.55 498.97,294.14 C507.23,255.45 507.08,256.00 509.36,256.00 C510.96,256.00 526.98,249.55 533.14,246.43 C535.72,245.12 539.62,243.76 541.80,243.42 C545.72,242.79 545.88,242.89 558.13,254.02 C568.73,263.65 574.42,268.97 580.83,275.21 C597.08,291.05 602.89,297.58 603.46,300.64 C604.03,303.70 604.34,303.96 606.80,303.39 C608.28,303.05 611.14,301.67 613.15,300.32 C618.36,296.82 630.00,284.51 630.00,282.50 C630.00,281.57 623.14,274.25 614.75,266.24 C606.36,258.22 592.67,244.88 584.33,236.58 C566.13,218.49 557.84,211.19 553.92,209.82 C550.58,208.66 550.22,207.02 552.79,204.69 C560.63,197.59 593.91,191.43 640.00,188.53 C663.91,187.03 667.51,186.25 666.46,182.75 C663.17,171.78 644.31,144.46 631.14,131.60 L 626.12 126.69 L 623.31 128.53 C620.34,130.46 575.61,169.92 560.98,183.50 C556.24,187.90 550.21,193.30 547.57,195.50 C544.94,197.70 541.85,200.51 540.71,201.75 C539.57,202.99 538.16,204.00 537.57,204.01 C536.98,204.01 534.92,205.58 533.00,207.50 C531.08,209.42 524.89,214.84 519.26,219.54 C513.63,224.25 508.55,228.98 507.97,230.05 C507.40,231.12 506.47,232.00 505.90,232.00 C504.78,232.00 483.15,250.71 465.64,266.82 C459.66,272.31 452.44,279.91 449.59,283.70 C443.67,291.57 436.00,306.59 436.00,310.32 C436.00,316.18 449.23,328.31 463.46,335.49 C470.56,339.08 488.08,345.64 491.16,345.88 C492.54,345.98 492.93,344.65 493.42,338.25 ZM 554.64 339.91 C567.80,335.89 592.92,320.38 593.82,315.72 C594.05,314.53 588.16,307.82 575.83,295.21 C565.75,284.91 553.90,272.50 549.50,267.64 C540.92,258.16 536.57,255.03 534.64,256.96 C533.35,258.25 533.32,266.83 534.47,310.50 C534.91,327.25 535.66,340.03 536.24,340.75 C537.78,342.67 546.98,342.25 554.64,339.91 ZM 394.30 311.36 C397.97,309.48 399.86,307.91 417.00,292.50 C441.76,270.23 468.57,246.41 472.00,243.62 C473.92,242.06 482.42,234.43 490.88,226.68 C499.34,218.92 507.89,211.29 509.88,209.71 C515.78,205.03 542.05,180.95 547.74,175.00 C550.63,171.98 553.41,169.50 553.92,169.50 C554.43,169.50 561.50,163.43 569.64,156.00 C577.77,148.57 587.82,139.62 591.96,136.09 C596.11,132.57 606.14,123.61 614.26,116.19 C629.77,102.01 631.63,99.31 629.73,93.73 C628.40,89.82 625.29,88.00 619.93,88.00 C614.32,88.00 612.24,89.41 595.49,104.61 C588.89,110.60 579.66,118.86 574.99,122.98 C570.32,127.09 561.78,134.76 556.00,140.02 C550.22,145.29 540.10,154.23 533.50,159.91 C526.90,165.58 517.00,174.59 511.50,179.94 C499.95,191.16 479.82,209.62 468.98,218.93 C464.87,222.46 461.05,225.84 460.50,226.44 C459.95,227.04 458.38,228.25 457.00,229.12 C455.62,230.00 449.08,235.62 442.46,241.61 C435.84,247.60 424.39,257.67 417.02,264.00 C385.71,290.85 377.00,299.84 377.00,305.31 C377.00,306.45 378.21,308.65 379.69,310.20 C381.83,312.43 383.26,313.00 386.74,313.00 C389.14,313.00 392.54,312.26 394.30,311.36 ZM 647.48 267.84 C651.02,263.63 662.14,240.66 665.91,229.78 C667.57,224.98 669.23,218.74 669.61,215.91 L 670.29 210.76 L 649.89 211.43 C627.56,212.18 586.05,214.85 584.79,215.63 C583.26,216.58 584.03,218.05 587.03,219.87 C588.70,220.89 592.64,224.17 595.78,227.17 C598.93,230.17 604.09,234.52 607.25,236.84 C610.41,239.16 613.72,242.17 614.61,243.53 C615.50,244.89 616.63,246.00 617.11,246.00 C617.59,246.00 623.73,251.61 630.74,258.47 C637.76,265.33 643.80,270.95 644.16,270.97 C644.52,270.99 646.02,269.58 647.48,267.84 ZM 391.97 264.01 C394.11,262.92 396.16,261.55 396.53,260.96 C396.89,260.37 401.31,256.58 406.34,252.54 C411.38,248.50 418.42,242.85 422.00,239.98 C429.07,234.30 441.00,222.95 441.00,221.90 C441.00,220.83 435.46,220.03 417.51,218.51 C389.43,216.13 367.88,214.00 361.15,212.92 C354.60,211.88 352.00,212.63 352.00,215.57 C352.00,217.52 361.78,236.39 364.06,238.83 C365.13,239.98 366.00,241.19 366.00,241.52 C366.00,243.38 380.53,261.32 383.73,263.41 C385.80,264.77 387.63,265.91 387.79,265.94 C387.95,265.97 389.83,265.11 391.97,264.01 ZM 484.12 196.33 C504.88,180.50 529.00,160.38 529.00,158.87 C529.00,156.52 518.50,158.29 503.93,163.09 C495.44,165.89 486.13,168.43 483.24,168.73 L 477.98 169.28 L 460.32 150.89 C436.71,126.32 418.90,109.00 417.24,109.00 C416.49,109.00 416.13,109.40 416.43,109.89 C416.74,110.38 415.98,111.07 414.74,111.41 C413.51,111.75 409.36,115.85 405.52,120.52 C401.68,125.18 398.19,129.00 397.77,129.00 C397.35,129.00 397.00,129.84 397.00,130.87 C397.00,131.97 403.88,139.46 413.75,149.09 C422.96,158.08 439.27,174.34 449.98,185.22 C460.70,196.10 470.20,205.00 471.10,205.00 C472.00,205.00 477.86,201.10 484.12,196.33 ZM 442.91 202.48 C442.07,201.64 439.97,200.18 438.25,199.23 C432.61,196.11 409.85,175.89 390.70,156.97 C379.00,145.41 371.60,138.80 371.09,139.45 C369.64,141.32 362.89,155.58 362.51,157.57 C362.32,158.63 362.09,159.50 362.00,159.50 C361.92,159.50 361.65,160.62 361.41,162.00 C361.17,163.38 360.69,165.18 360.34,166.00 C359.99,166.82 359.53,168.40 359.32,169.50 C359.11,170.60 358.43,173.30 357.80,175.50 C356.27,180.89 356.23,186.94 357.71,188.18 C358.38,188.73 361.76,189.56 365.21,190.01 C377.67,191.66 393.61,193.99 399.00,194.95 C417.11,198.20 435.70,202.37 436.77,203.44 C437.08,203.75 438.93,204.00 440.88,204.00 C444.06,204.00 444.27,203.84 442.91,202.48 ZM 489.78 149.75 C491.27,147.94 492.07,57.00 490.60,57.01 C488.41,57.04 479.36,59.87 473.00,62.51 C460.64,67.65 448.89,75.30 438.93,84.71 C430.18,92.95 430.06,94.38 437.50,101.17 C440.52,103.94 443.00,106.72 443.00,107.35 C443.01,107.98 448.63,113.41 455.50,119.41 C462.38,125.42 468.00,130.67 468.00,131.08 C468.00,131.97 478.27,144.23 482.36,148.22 C485.42,151.20 488.13,151.76 489.78,149.75 ZM 525.93 143.76 C528.99,143.56 545.25,125.56 559.34,106.77 L 574.13 87.05 L 570.83 82.94 C565.75,76.61 551.19,64.20 544.37,60.39 C536.38,55.92 524.74,52.00 519.46,52.00 C515.35,52.00 515.25,52.08 514.75,55.84 C514.47,57.95 514.62,63.24 515.08,67.59 C515.55,71.94 516.25,91.18 516.63,110.35 L 517.33 145.21 L 520.91 144.53 C522.89,144.16 525.14,143.81 525.93,143.76 ZM 407.00 530.97 C407.00,530.40 408.06,527.81 409.36,525.22 C410.65,522.62 412.01,519.26 412.38,517.75 C413.08,514.84 415.00,513.94 415.00,516.53 C415.00,517.37 416.46,520.86 418.24,524.28 C420.03,527.70 421.64,530.84 421.83,531.25 C422.01,531.66 418.75,532.00 414.58,532.00 C410.03,532.00 407.00,531.59 407.00,530.97 ZM 459.00 524.15 C455.69,523.54 455.48,523.26 455.18,519.08 C454.58,510.60 455.09,510.00 462.95,510.00 C471.48,510.00 474.75,511.15 475.58,514.46 C476.44,517.88 475.36,521.74 473.24,522.87 C470.71,524.22 463.05,524.91 459.00,524.15 ZM 571.17 531.19 C575.83,519.80 578.52,514.00 579.14,514.00 C579.57,514.00 580.43,515.87 581.04,518.15 C581.66,520.44 583.02,523.92 584.08,525.89 C587.18,531.67 586.87,532.00 578.42,532.00 C574.25,532.00 570.98,531.63 571.17,531.19 ZM 307.66 525.25 C307.40,524.84 307.04,521.58 306.85,518.00 L 306.50 511.50 L 313.78 510.65 C323.14,509.56 326.00,511.03 326.00,516.93 C326.00,520.05 325.39,521.34 322.92,523.41 C320.38,525.55 318.83,526.00 313.98,526.00 C310.76,526.00 307.91,525.66 307.66,525.25 ZM 281.67 427.33 C280.59,426.26 280.90,408.05 282.04,405.93 C282.99,404.14 284.28,404.00 299.60,404.00 C308.89,404.00 316.96,404.45 318.03,405.02 C322.33,407.32 322.41,418.57 318.15,423.35 C314.59,427.36 311.62,428.00 296.72,428.00 C288.81,428.00 282.03,427.70 281.67,427.33 ZM 392.00 440.09 C392.00,439.58 394.49,434.52 397.54,428.84 C400.59,423.15 403.34,417.49 403.65,416.25 C404.29,413.71 406.19,413.32 407.89,415.37 C409.30,417.07 416.00,435.88 416.00,438.14 C416.00,439.05 415.29,440.06 414.42,440.39 C411.88,441.37 392.00,441.09 392.00,440.09 ZM 858.43 437.41 C858.82,435.81 859.56,434.35 860.07,434.17 C860.58,433.98 861.00,433.20 861.00,432.42 C861.00,431.64 861.36,431.00 861.79,431.00 C862.22,431.00 864.32,427.74 866.45,423.75 C871.06,415.11 873.82,411.00 875.00,411.00 C876.12,411.00 889.50,437.83 888.76,438.58 C888.44,438.89 881.33,439.41 872.95,439.73 L 857.70 440.32 L 858.43 437.41 Z" fill="rgb(254,254,254)"/>
</g>
</svg>